<?xml version="1.0" encoding="UTF-8" standalone="no"?>
<!-- Created with Inkscape (http://www.inkscape.org/) -->

<svg
   width="19.111067mm"
   height="11.906258mm"
   viewBox="0 0 19.111067 11.906258"
   version="1.1"
   id="svg1"
   inkscape:version="1.3 (0e150ed6c4, 2023-07-21)"
   sodipodi:docname="icons.svg"
   xmlns:inkscape="http://www.inkscape.org/namespaces/inkscape"
   xmlns:sodipodi="http://sodipodi.sourceforge.net/DTD/sodipodi-0.dtd"
   xmlns="http://www.w3.org/2000/svg"
   xmlns:svg="http://www.w3.org/2000/svg">
  <sodipodi:namedview
     id="namedview1"
     pagecolor="#ffffff"
     bordercolor="#000000"
     borderopacity="0.25"
     inkscape:showpageshadow="2"
     inkscape:pageopacity="0.0"
     inkscape:pagecheckerboard="0"
     inkscape:deskcolor="#d1d1d1"
     inkscape:document-units="mm"
     inkscape:zoom="2.9255612"
     inkscape:cx="120.3188"
     inkscape:cy="250.37931"
     inkscape:window-width="1920"
     inkscape:window-height="1017"
     inkscape:window-x="-8"
     inkscape:window-y="-8"
     inkscape:window-maximized="1"
     inkscape:current-layer="layer1" />
  <defs
     id="defs1" />
  <g
     inkscape:label="Layer 1"
     inkscape:groupmode="layer"
     id="layer1"
     transform="translate(-41.587552,-38.786105)">
    <path
       fill-rule="nonzero"
       d="m 47.750643,40.106315 c -0.144452,0 -0.260909,-0.116403 -0.260909,-0.260897 0,-0.144451 0.116457,-0.260906 0.260909,-0.260906 h 5.538043 v -0.537501 c 0,-0.144451 0.116457,-0.260906 0.260909,-0.260906 0.14445,0 0.260907,0.116403 0.260907,0.260906 v 0.537501 h 6.599218 c 0.144453,0 0.260908,0.116403 0.260908,0.260906 0,0.144442 -0.116457,0.260897 -0.260908,0.260897 h -0.600574 v 7.498033 h 0.62857 c 0.144449,0 0.260906,0.116403 0.260906,0.260906 0,0.144459 -0.116457,0.260914 -0.260906,0.260914 h -6.730233 v 0.265017 c 0.01417,0.0097 0.02351,0.01861 0.03248,0.02804 l 1.597549,1.51841 c 0.102275,0.09779 0.107123,0.265388 0.0093,0.367669 -0.09779,0.102652 -0.265389,0.107091 -0.368034,0.0097 l -1.266467,-1.206005 v 1.322469 c 0,0.144442 -0.116457,0.260897 -0.260909,0.260897 -0.14445,0 -0.260907,-0.116395 -0.260907,-0.260897 v -1.373596 l -1.322457,1.257132 c -0.102649,0.09779 -0.270239,0.09779 -0.368034,-0.0097 -0.09779,-0.102237 -0.09779,-0.269863 0.0093,-0.367669 l 1.597563,-1.51841 c 0.02314,-0.02319 0.05562,-0.0418 0.0836,-0.05599 V 48.12622 h -5.516394 c -0.144451,0 -0.260908,-0.116395 -0.260908,-0.260914 0,-0.144442 0.116457,-0.260906 0.260908,-0.260906 h 11.613205 v -7.498024 z m 5.098343,6.39468 a 0.23888573,0.23888573 0 0 1 -0.238885,-0.23889 c 0,-0.131824 0.107122,-0.238509 0.238885,-0.238509 h 5.090133 c 0.131764,0 0.238512,0.106814 0.238512,0.238509 0,0.132093 -0.106748,0.23889 -0.238512,0.23889 z m 0.360568,-1.604637 c -0.131765,0 -0.238512,-0.106814 -0.238512,-0.238526 0,-0.132093 0.106747,-0.238873 0.238512,-0.238873 h 4.729565 c 0.131764,0 0.238512,0.106823 0.238512,0.238873 0,0.131824 -0.106748,0.238526 -0.238512,0.238526 z m -0.77563,-1.604645 c -0.131765,0 -0.238514,-0.106815 -0.238514,-0.23851 0,-0.131816 0.106748,-0.23889 0.238514,-0.23889 h 5.505195 c 0.131764,0 0.238512,0.1071 0.238512,0.23889 0,0.131816 -0.106748,0.23851 -0.238512,0.23851 z M 49.979,41.687067 c -0.131765,0 -0.238513,-0.106815 -0.238513,-0.238509 0,-0.131816 0.106748,-0.238891 0.238513,-0.238891 h 7.960119 c 0.131764,0 0.238512,0.107101 0.238512,0.238891 0,0.131824 -0.106748,0.238509 -0.238512,0.238509 z m -0.172445,3.154789 1.809932,-1.897648 c 0.106372,-0.111956 0.283301,-0.116127 0.394907,-0.0097 0.111985,0.1064 0.116083,0.283294 0.01,0.394903 l -1.705048,1.787917 c 0.139972,0.169452 0.206412,0.397516 0.161993,0.630055 -0.07913,0.413949 -0.47889,0.685309 -0.89246,0.606178 l -1.892798,-0.36393 c -0.188867,-0.03289 -0.365793,-0.13668 -0.487101,-0.30421 l -0.614007,-0.848411 -0.0016,0.0765 v -0.0553 l -0.04889,2.830797 0.07427,0.424014 h -3.174564 l 0.06569,-0.39267 -0.05823,-2.8084 v 0.0017 l -0.0097,-0.481502 -0.0034,0.0043 c -0.324735,0.325109 -0.338547,1.099994 -0.374753,1.57067 l -0.0825,1.077979 c -0.01903,0.24597 -0.03956,0.384812 -0.232168,0.551296 -0.279944,0.241123 -0.75137,0.290761 -1.000334,-0.01419 -0.160874,-0.196339 -0.168713,-0.509869 -0.15229,-0.796165 0.08287,-1.4322 0.251204,-3.58776 1.855097,-4.296946 v 0.01791 c 0.680078,-0.270235 1.481465,-0.152655 2.213053,-0.152655 0.348251,0 0.654322,0.05115 0.926055,0.155268 0.173564,0.03998 0.333695,0.140349 0.446417,0.296006 l 1.230262,1.700929 z m -4.793393,-5.938915 c 0.891715,0 1.614344,0.722634 1.614344,1.614338 0,0.891341 -0.722629,1.613975 -1.614344,1.613975 -0.891717,0 -1.614347,-0.722634 -1.614347,-1.613975 0,-0.891704 0.72263,-1.614338 1.614347,-1.614338 z"
       id="path1-42"
       style="fill:#333333;fill-opacity:1;stroke-width:0.0373258"
       inkscape:export-filename="examples.svg"
       inkscape:export-xdpi="96"
       inkscape:export-ydpi="96" />
  </g>
</svg>
