<?xml version="1.0" encoding="UTF-8" standalone="no"?>
<!-- Created with Inkscape (http://www.inkscape.org/) -->

<svg
   width="112.67432mm"
   height="40.692131mm"
   viewBox="0 0 112.67432 40.692131"
   version="1.1"
   id="svg1"
   sodipodi:docname="logos.svg"
   inkscape:version="1.3 (0e150ed6c4, 2023-07-21)"
   xml:space="preserve"
   xmlns:inkscape="http://www.inkscape.org/namespaces/inkscape"
   xmlns:sodipodi="http://sodipodi.sourceforge.net/DTD/sodipodi-0.dtd"
   xmlns="http://www.w3.org/2000/svg"
   xmlns:svg="http://www.w3.org/2000/svg"><sodipodi:namedview
     id="namedview1"
     pagecolor="#ffffff"
     bordercolor="#000000"
     borderopacity="0.25"
     inkscape:showpageshadow="2"
     inkscape:pageopacity="0.0"
     inkscape:pagecheckerboard="0"
     inkscape:deskcolor="#d1d1d1"
     inkscape:document-units="mm"
     inkscape:zoom="0.93874492"
     inkscape:cx="454.86265"
     inkscape:cy="704.66426"
     inkscape:window-width="1080"
     inkscape:window-height="1857"
     inkscape:window-x="1912"
     inkscape:window-y="-8"
     inkscape:window-maximized="1"
     inkscape:current-layer="layer1"
     inkscape:export-bgcolor="#ffffff00" /><defs
     id="defs1" /><g
     inkscape:label="Layer 1"
     inkscape:groupmode="layer"
     id="layer1"
     transform="translate(-48.662927,-49.812495)"><g
       id="g87"
       inkscape:export-filename="dark.svg"
       inkscape:export-xdpi="500"
       inkscape:export-ydpi="500"><path
         style="fill:#e6e6e6;fill-opacity:1;stroke:#e6e6e6;stroke-width:2;stroke-dasharray:none;stroke-opacity:1"
         d="m 73.80648,86.507055 h 85.2806"
         id="path39"
         sodipodi:nodetypes="cc" /><path
         style="fill:#e6e6e6;fill-opacity:1;stroke:#e6e6e6;stroke-width:2;stroke-dasharray:none;stroke-opacity:1"
         d="m 73.80648,60.958455 h 85.2806"
         id="path40"
         sodipodi:nodetypes="cc" /><path
         style="fill:#e6e6e6;fill-opacity:1;stroke:#e6e6e6;stroke-width:2;stroke-dasharray:none;stroke-opacity:1"
         d="m 73.80648,86.507055 h 85.2806"
         id="path41"
         sodipodi:nodetypes="cc" /><path
         d="m 96.350192,79.158785 q 0,0.424437 -0.05788,0.655948 -0.04823,0.221864 -0.135048,0.318327 -0.08682,0.08682 -0.260449,0.163987 -0.163987,0.06752 -0.395498,0.115756 -0.221865,0.05788 -0.491961,0.08682 -0.26045,0.02894 -0.530546,0.02894 -0.723472,0 -1.254017,-0.183279 Q 92.694247,80.162004 92.34698,79.785799 91.999714,79.399947 91.835727,78.82117 91.67174,78.242393 91.67174,77.451397 v -4.408354 h -1.032153 q -0.183279,0 -0.279742,-0.221865 -0.09646,-0.231511 -0.09646,-0.762057 0,-0.279742 0.01929,-0.472668 0.02894,-0.192926 0.07717,-0.299035 0.04823,-0.115755 0.115755,-0.163987 0.07717,-0.04823 0.173633,-0.04823 h 1.022507 v -1.919612 q 0,-0.09646 0.04823,-0.173633 0.05788,-0.07717 0.192926,-0.125402 0.144695,-0.05788 0.376206,-0.07717 0.241157,-0.02894 0.588423,-0.02894 0.356913,0 0.588424,0.02894 0.241157,0.01929 0.376205,0.07717 0.135048,0.04823 0.192926,0.125402 0.05788,0.07717 0.05788,0.173633 v 1.919612 h 1.87138 q 0.09646,0 0.163987,0.04823 0.07717,0.04823 0.125401,0.163987 0.04823,0.106109 0.06752,0.299035 0.02894,0.192926 0.02894,0.472668 0,0.530546 -0.09646,0.762057 -0.09646,0.221865 -0.279742,0.221865 H 94.09296 v 4.041795 q 0,0.704179 0.221864,1.061092 0.221865,0.347266 0.790996,0.347266 0.192926,0 0.347266,-0.02894 0.154341,-0.03858 0.270096,-0.07717 0.125402,-0.04823 0.202572,-0.07717 0.08682,-0.03859 0.154341,-0.03859 0.05788,0 0.106109,0.03859 0.05788,0.02894 0.08682,0.135048 0.02894,0.09646 0.04823,0.270096 0.02894,0.173633 0.02894,0.443729 z m 9.974258,0.848873 q 0,0.09646 -0.0579,0.173634 -0.0579,0.06752 -0.19293,0.115755 -0.13505,0.04823 -0.3762,0.06752 -0.23151,0.02894 -0.57878,0.02894 -0.35691,0 -0.59807,-0.02894 -0.23151,-0.01929 -0.36656,-0.06752 -0.13505,-0.04823 -0.19293,-0.115755 -0.0579,-0.07717 -0.0579,-0.173634 v -4.909961 q 0,-0.627008 -0.0965,-0.983921 -0.0868,-0.356913 -0.26045,-0.607716 -0.17363,-0.26045 -0.45337,-0.395498 -0.2701,-0.144695 -0.63666,-0.144695 -0.46302,0 -0.93569,0.337621 -0.47267,0.33762 -0.98392,0.983921 v 5.720249 q 0,0.09646 -0.0579,0.173634 -0.0579,0.06752 -0.20257,0.115755 -0.13505,0.04823 -0.366557,0.06752 -0.231511,0.02894 -0.588424,0.02894 -0.356913,0 -0.588424,-0.02894 -0.231511,-0.01929 -0.376205,-0.06752 -0.135048,-0.04823 -0.192926,-0.115755 -0.05788,-0.07717 -0.05788,-0.173634 v -12.68487 q 0,-0.09646 0.05788,-0.173633 0.05788,-0.07717 0.192926,-0.125402 0.144694,-0.05788 0.376205,-0.08682 0.231511,-0.02894 0.588424,-0.02894 0.356913,0 0.588424,0.02894 0.231507,0.02894 0.366557,0.08682 0.1447,0.04823 0.20257,0.125402 0.0579,0.07717 0.0579,0.173633 v 4.755621 q 0.62701,-0.617363 1.27331,-0.916398 0.65595,-0.308681 1.36013,-0.308681 0.87781,0 1.47588,0.289389 0.60772,0.289389 0.97428,0.790996 0.3762,0.501607 0.54019,1.176847 0.16398,0.665594 0.16398,1.620576 z m 10.33118,-4.553048 q 0,0.443729 -0.20257,0.655948 -0.19293,0.212218 -0.54019,0.212218 h -5.23794 q 0,0.549839 0.1254,1.003214 0.13505,0.443729 0.41479,0.762057 0.28939,0.308681 0.73312,0.472668 0.45338,0.163987 1.08039,0.163987 0.63665,0 1.11896,-0.08682 0.48232,-0.09646 0.82959,-0.202572 0.35691,-0.115755 0.58842,-0.202572 0.23151,-0.09646 0.3762,-0.09646 0.0868,0 0.1447,0.03859 0.0579,0.02894 0.0965,0.115755 0.0386,0.08682 0.0482,0.250804 0.0193,0.15434 0.0193,0.395497 0,0.212219 -0.01,0.366559 -0.01,0.144695 -0.0289,0.250804 -0.0193,0.106109 -0.0579,0.183279 -0.0386,0.06752 -0.10611,0.135048 -0.0579,0.06752 -0.33762,0.18328 -0.27974,0.115755 -0.71382,0.231511 -0.43408,0.106109 -0.99357,0.183279 -0.55948,0.08682 -1.19614,0.08682 -1.14791,0 -2.01607,-0.289389 -0.85852,-0.289388 -1.4373,-0.877812 -0.57878,-0.588424 -0.86817,-1.485529 -0.27974,-0.897104 -0.27974,-2.102891 0,-1.147908 0.29904,-2.064305 0.29903,-0.926044 0.86816,-1.562699 0.56913,-0.646302 1.37942,-0.983922 0.81994,-0.33762 1.84244,-0.33762 1.08039,0 1.84244,0.318328 0.77171,0.318327 1.26367,0.887458 0.49196,0.559485 0.72347,1.331188 0.23151,0.771703 0.23151,1.678455 z m -2.35369,-0.694533 q 0.0289,-1.022506 -0.4148,-1.601284 -0.43408,-0.588423 -1.35048,-0.588423 -0.46302,0 -0.81028,0.173633 -0.33762,0.173633 -0.56913,0.472668 -0.22187,0.289389 -0.34727,0.694533 -0.11576,0.395498 -0.13505,0.848873 z m 12.17361,-3.366555 q 0,0.04823 -0.01,0.115756 0,0.06752 -0.0193,0.15434 -0.01,0.07717 -0.0386,0.18328 -0.0193,0.106109 -0.0579,0.241157 l -2.5852,7.784555 q -0.0482,0.163987 -0.13505,0.270097 -0.0772,0.09646 -0.2701,0.15434 -0.18328,0.05788 -0.51125,0.07717 -0.31833,0.01929 -0.83923,0.01929 -0.51125,0 -0.83923,-0.02894 -0.31832,-0.01929 -0.5016,-0.07717 -0.18328,-0.05788 -0.2701,-0.154341 -0.0772,-0.106109 -0.1254,-0.26045 l -2.58521,-7.784555 q -0.0579,-0.192926 -0.0965,-0.347266 -0.0289,-0.154341 -0.0386,-0.221865 0,-0.06752 0,-0.125402 0,-0.09646 0.0482,-0.163987 0.0579,-0.07717 0.19292,-0.125401 0.13505,-0.04823 0.36656,-0.06752 0.24116,-0.01929 0.59807,-0.01929 0.3955,0 0.63666,0.02894 0.24115,0.01929 0.3762,0.06752 0.1447,0.03858 0.20257,0.125402 0.0579,0.07717 0.0965,0.192926 l 1.95819,6.318319 0.0579,0.241157 0.0579,-0.241157 1.92926,-6.318319 q 0.0289,-0.115756 0.0868,-0.192926 0.0675,-0.08682 0.20258,-0.125402 0.13504,-0.04823 0.35691,-0.06752 0.23151,-0.02894 0.59807,-0.02894 0.35691,0 0.57878,0.01929 0.23151,0.01929 0.35691,0.06752 0.1254,0.04823 0.17363,0.125401 0.0482,0.06752 0.0482,0.163987 z m 9.19291,4.061088 q 0,0.443729 -0.20257,0.655948 -0.19292,0.212218 -0.54019,0.212218 h -5.23793 q 0,0.549839 0.1254,1.003214 0.13505,0.443729 0.41479,0.762057 0.28939,0.308681 0.73312,0.472668 0.45337,0.163987 1.08038,0.163987 0.63665,0 1.11897,-0.08682 0.48231,-0.09646 0.82958,-0.202572 0.35691,-0.115755 0.58842,-0.202572 0.23151,-0.09646 0.37621,-0.09646 0.0868,0 0.14469,0.03859 0.0579,0.02894 0.0965,0.115755 0.0386,0.08682 0.0482,0.250804 0.0193,0.15434 0.0193,0.395497 0,0.212219 -0.01,0.366559 -0.01,0.144695 -0.0289,0.250804 -0.0193,0.106109 -0.0579,0.183279 -0.0386,0.06752 -0.10611,0.135048 -0.0579,0.06752 -0.33762,0.18328 -0.27974,0.115755 -0.71383,0.231511 -0.43408,0.106109 -0.99356,0.183279 -0.55949,0.08682 -1.19614,0.08682 -1.14791,0 -2.01608,-0.289389 -0.85852,-0.289388 -1.4373,-0.877812 -0.57877,-0.588424 -0.86816,-1.485529 -0.27974,-0.897104 -0.27974,-2.102891 0,-1.147908 0.29903,-2.064305 0.29904,-0.926044 0.86817,-1.562699 0.56913,-0.646302 1.37942,-0.983922 0.81993,-0.33762 1.84244,-0.33762 1.08038,0 1.84244,0.318328 0.7717,0.318327 1.26366,0.887458 0.49196,0.559485 0.72347,1.331188 0.23151,0.771703 0.23151,1.678455 z m -2.35369,-0.694533 q 0.0289,-1.022506 -0.41479,-1.601284 -0.43408,-0.588423 -1.35048,-0.588423 -0.46302,0 -0.81029,0.173633 -0.33762,0.173633 -0.56913,0.472668 -0.22186,0.289389 -0.34727,0.694533 -0.11575,0.395498 -0.13504,0.848873 z m 12.56911,5.247581 q 0,0.09646 -0.0579,0.173634 -0.0579,0.06752 -0.19293,0.115755 -0.13505,0.04823 -0.3762,0.06752 -0.23152,0.02894 -0.57878,0.02894 -0.35691,0 -0.59807,-0.02894 -0.23151,-0.01929 -0.36656,-0.06752 -0.13505,-0.04823 -0.19293,-0.115755 -0.0579,-0.07717 -0.0579,-0.173634 v -4.909961 q 0,-0.627008 -0.0965,-0.983921 -0.0868,-0.356913 -0.26045,-0.607716 -0.17363,-0.26045 -0.45337,-0.395498 -0.2701,-0.144695 -0.63666,-0.144695 -0.46302,0 -0.93569,0.337621 -0.47267,0.33762 -0.98392,0.983921 v 5.720249 q 0,0.09646 -0.0579,0.173634 -0.0579,0.06752 -0.20257,0.115755 -0.13505,0.04823 -0.36656,0.06752 -0.23151,0.02894 -0.58842,0.02894 -0.35691,0 -0.58842,-0.02894 -0.23152,-0.01929 -0.37621,-0.06752 -0.13505,-0.04823 -0.19293,-0.115755 -0.0579,-0.07717 -0.0579,-0.173634 v -8.604489 q 0,-0.09646 0.0482,-0.163987 0.0482,-0.07717 0.17363,-0.125402 0.1254,-0.04823 0.31833,-0.06752 0.20257,-0.02894 0.50161,-0.02894 0.30868,0 0.51125,0.02894 0.20257,0.01929 0.30868,0.06752 0.11576,0.04823 0.16399,0.125402 0.0482,0.06752 0.0482,0.163987 v 0.993567 q 0.71382,-0.771703 1.44694,-1.157554 0.74277,-0.385852 1.54341,-0.385852 0.87781,0 1.47588,0.289389 0.60772,0.289389 0.97428,0.790996 0.3762,0.49196 0.54019,1.157554 0.16398,0.665594 0.16398,1.601284 z m 4.8135,0 q 0,0.09646 -0.0579,0.173634 -0.0579,0.06752 -0.20258,0.115755 -0.13504,0.04823 -0.36656,0.06752 -0.23151,0.02894 -0.58842,0.02894 -0.35691,0 -0.58842,-0.02894 -0.23151,-0.01929 -0.37621,-0.06752 -0.13505,-0.04823 -0.19292,-0.115755 -0.0579,-0.07717 -0.0579,-0.173634 v -8.585197 q 0,-0.09646 0.0579,-0.163987 0.0579,-0.07717 0.19292,-0.125401 0.1447,-0.05788 0.37621,-0.08682 0.23151,-0.02894 0.58842,-0.02894 0.35691,0 0.58842,0.02894 0.23152,0.02894 0.36656,0.08682 0.1447,0.04823 0.20258,0.125401 0.0579,0.06752 0.0579,0.163987 z m 0.18328,-11.517669 q 0,0.733118 -0.29903,1.012861 -0.29904,0.279742 -1.10933,0.279742 -0.81993,0 -1.10932,-0.270096 -0.27974,-0.270096 -0.27974,-0.974275 0,-0.733118 0.28939,-1.012861 0.29903,-0.289388 1.11897,-0.289388 0.81029,0 1.09967,0.279742 0.28939,0.270096 0.28939,0.974275 z m 10.45658,11.517669 q 0,0.09646 -0.0579,0.173634 -0.0579,0.06752 -0.19292,0.115755 -0.13505,0.04823 -0.37621,0.06752 -0.23151,0.02894 -0.57877,0.02894 -0.35692,0 -0.59807,-0.02894 -0.23151,-0.01929 -0.36656,-0.06752 -0.13505,-0.04823 -0.19293,-0.115755 -0.0579,-0.07717 -0.0579,-0.173634 v -4.909961 q 0,-0.627008 -0.0965,-0.983921 -0.0868,-0.356913 -0.26045,-0.607716 -0.17363,-0.26045 -0.45337,-0.395498 -0.2701,-0.144695 -0.63666,-0.144695 -0.46302,0 -0.93569,0.337621 -0.47267,0.33762 -0.98392,0.983921 v 5.720249 q 0,0.09646 -0.0579,0.173634 -0.0579,0.06752 -0.20257,0.115755 -0.13505,0.04823 -0.36656,0.06752 -0.23151,0.02894 -0.58842,0.02894 -0.35692,0 -0.58843,-0.02894 -0.23151,-0.01929 -0.3762,-0.06752 -0.13505,-0.04823 -0.19293,-0.115755 -0.0579,-0.07717 -0.0579,-0.173634 v -8.604489 q 0,-0.09646 0.0482,-0.163987 0.0482,-0.07717 0.17363,-0.125402 0.1254,-0.04823 0.31833,-0.06752 0.20257,-0.02894 0.5016,-0.02894 0.30868,0 0.51126,0.02894 0.20257,0.01929 0.30868,0.06752 0.11575,0.04823 0.16398,0.125402 0.0482,0.06752 0.0482,0.163987 v 0.993567 q 0.71382,-0.771703 1.44694,-1.157554 0.74276,-0.385852 1.54341,-0.385852 0.87781,0 1.47588,0.289389 0.60771,0.289389 0.97427,0.790996 0.37621,0.49196 0.5402,1.157554 0.16398,0.665594 0.16398,1.601284 z"
         id="text41"
         style="font-weight:bold;font-size:19.7556px;line-height:0.9;font-family:Calibri;-inkscape-font-specification:'Calibri, Bold';fill:#e6e6e6;stroke-width:2"
         aria-label="thevenin" /><ellipse
         style="fill:#e6e6e6;fill-opacity:1;stroke:#e6e6e6;stroke-width:1.55222;stroke-dasharray:none;stroke-opacity:1"
         id="ellipse41"
         cx="159.08708"
         cy="86.507065"
         rx="1.4738898"
         ry="1.473888" /><ellipse
         style="fill:#e6e6e6;fill-opacity:1;stroke:#e6e6e6;stroke-width:1.55222;stroke-dasharray:none;stroke-opacity:1"
         id="ellipse42"
         cx="159.08708"
         cy="60.95845"
         rx="1.4738898"
         ry="1.473888" /><rect
         style="fill:#e6e6e6;fill-opacity:1;stroke:#e6e6e6;stroke-width:2.0415;stroke-dasharray:none;stroke-opacity:1"
         id="rect42"
         width="12.047379"
         height="3.0861664"
         x="94.908501"
         y="59.40023"
         ry="1.5430832" /><rect
         style="fill:#e6e6e6;fill-opacity:1;stroke:#e6e6e6;stroke-width:2.0415;stroke-dasharray:none;stroke-opacity:1"
         id="rect43"
         width="12.047379"
         height="3.0861664"
         x="125.93768"
         y="59.40023"
         ry="1.5430832" /><path
         style="fill:#e6e6e6;fill-opacity:1;stroke:#e6e6e6;stroke-width:2;stroke-dasharray:none;stroke-opacity:1"
         d="m 115.44678,52.861385 13.24148,-0.032"
         id="path43"
         sodipodi:nodetypes="cc" /><path
         style="fill:#e6e6e6;fill-opacity:1;stroke:#e6e6e6;stroke-width:2;stroke-dasharray:none;stroke-opacity:1"
         d="m 116.44678,52.829415 v 8.1139"
         id="path44"
         sodipodi:nodetypes="cc" /><path
         style="fill:#e6e6e6;fill-opacity:1;stroke:#e6e6e6;stroke-width:2;stroke-dasharray:none;stroke-opacity:1"
         d="m 135.23207,52.861385 13.24148,-0.032"
         id="path45"
         sodipodi:nodetypes="cc" /><path
         style="fill:#e6e6e6;fill-opacity:1;stroke:#e6e6e6;stroke-width:2;stroke-dasharray:none;stroke-opacity:1"
         d="m 147.47596,52.829415 v 8.1139"
         id="path46"
         sodipodi:nodetypes="cc" /><path
         style="fill:#e6e6e6;fill-opacity:1;stroke:#e6e6e6;stroke-width:2;stroke-dasharray:none;stroke-opacity:1"
         d="m 128.68826,49.812496 v 6.033819"
         id="path47"
         sodipodi:nodetypes="cc" /><path
         style="fill:#e6e6e6;fill-opacity:1;stroke:#e6e6e6;stroke-width:2;stroke-dasharray:none;stroke-opacity:1"
         d="m 135.22965,49.812496 v 6.033819"
         id="path48"
         sodipodi:nodetypes="cc" /><path
         id="path49"
         style="fill:#325d80;fill-opacity:1;stroke-width:0.499999"
         d="m 79.92253,56.577514 a 19.131355,19.131355 0 0 1 7.003104,14.795752 v 0 a 19.131355,19.131355 0 0 1 -19.131355,19.131359 19.131355,19.131355 0 0 1 -16.27718,-9.07838" /><path
         id="path50"
         style="fill:#4b8bbe;fill-opacity:1;stroke-width:0.499999"
         d="M 51.517099,81.426245 A 19.131355,19.131355 0 0 1 48.662924,71.373266 19.131355,19.131355 0 0 1 67.794279,52.241911 19.131355,19.131355 0 0 1 79.92253,56.577514" /><path
         id="path80"
         style="font-style:normal;font-variant:normal;font-weight:normal;font-stretch:normal;font-size:25.4px;line-height:0.9;font-family:'Bauhaus 93';-inkscape-font-specification:'Bauhaus 93, Normal';font-variant-ligatures:normal;font-variant-caps:normal;font-variant-numeric:normal;font-variant-east-asian:normal;fill:#ffe740;fill-opacity:1;stroke:none;stroke-width:0.601801;stroke-opacity:1"
         d="m 71.319645,64.102906 h -1.361157 v -5.73195 h -4.328935 v 0 5.73195 h -5.463232 v 4.20957 h 5.463232 v 0.76791" /><path
         id="path81"
         style="font-style:normal;font-variant:normal;font-weight:normal;font-stretch:normal;font-size:25.4px;line-height:0.9;font-family:'Bauhaus 93';-inkscape-font-specification:'Bauhaus 93, Normal';font-variant-ligatures:normal;font-variant-caps:normal;font-variant-numeric:normal;font-variant-east-asian:normal;fill:#e5cf3a;fill-opacity:1;stroke:none;stroke-width:0.601801;stroke-opacity:1"
         d="m 65.629553,69.080386 v 1.68982 3.25974 h 4.328935 v -5.71747 h 5.463749 v -4.20957 h -2.171444 -1.931148" /><path
         style="-inkscape-font-specification:'Bauhaus 93, Normal';fill:#e5cf3a;stroke-width:0.738199"
         d="m 73.212918,80.431638 v 3.746743 H 62.375636 v -3.746743 z"
         id="text52"
         aria-label="-" /></g></g></svg>
