<?xml version="1.0" encoding="UTF-8" standalone="no"?>
<!-- Created with Inkscape (http://www.inkscape.org/) -->

<svg
   width="112.67496mm"
   height="40.692703mm"
   viewBox="0 0 112.67496 40.692703"
   version="1.1"
   id="svg1"
   sodipodi:docname="logos.svg"
   inkscape:version="1.3 (0e150ed6c4, 2023-07-21)"
   xml:space="preserve"
   xmlns:inkscape="http://www.inkscape.org/namespaces/inkscape"
   xmlns:sodipodi="http://sodipodi.sourceforge.net/DTD/sodipodi-0.dtd"
   xmlns="http://www.w3.org/2000/svg"
   xmlns:svg="http://www.w3.org/2000/svg"><sodipodi:namedview
     id="namedview1"
     pagecolor="#ffffff"
     bordercolor="#000000"
     borderopacity="0.25"
     inkscape:showpageshadow="2"
     inkscape:pageopacity="0.0"
     inkscape:pagecheckerboard="0"
     inkscape:deskcolor="#d1d1d1"
     inkscape:document-units="mm"
     inkscape:zoom="0.93874492"
     inkscape:cx="454.86265"
     inkscape:cy="704.66426"
     inkscape:window-width="1080"
     inkscape:window-height="1857"
     inkscape:window-x="1912"
     inkscape:window-y="-8"
     inkscape:window-maximized="1"
     inkscape:current-layer="layer1"
     inkscape:export-bgcolor="#ffffff00" /><defs
     id="defs1" /><g
     inkscape:label="Layer 1"
     inkscape:groupmode="layer"
     id="layer1"
     transform="translate(-48.662927,-106.67188)"><g
       id="g86"><g
         id="path25"><path
           style="color:#000000;fill:#a1a1a1;-inkscape-stroke:none"
           d="m 73.80648,143.36703 h 85.2806"
           id="path15" /><path
           style="color:#000000;fill:#a1a1a1;-inkscape-stroke:none"
           d="m 73.806641,142.36719 v 2 h 85.281249 v -2 z"
           id="path16" /></g><g
         id="path24"><path
           style="color:#000000;fill:#333333;-inkscape-stroke:none"
           d="m 73.80648,117.81843 h 85.2806"
           id="path17" /><path
           style="color:#000000;fill:#333333;-inkscape-stroke:none"
           d="m 73.806641,116.81836 v 2 h 85.281249 v -2 z"
           id="path18" /></g><g
         id="path26"><path
           style="color:#000000;fill:#333333;-inkscape-stroke:none"
           d="m 73.80648,143.36703 h 85.2806"
           id="path19" /><path
           style="color:#000000;fill:#333333;-inkscape-stroke:none"
           d="m 73.806641,142.36719 v 2 h 85.281249 v -2 z"
           id="path20" /></g><path
         d="m 96.350192,136.01877 q 0,0.42444 -0.05788,0.65595 -0.04823,0.22186 -0.135048,0.31833 -0.08682,0.0868 -0.260449,0.16398 -0.163987,0.0675 -0.395498,0.11576 -0.221865,0.0579 -0.491961,0.0868 -0.26045,0.0289 -0.530546,0.0289 -0.723472,0 -1.254017,-0.18328 -0.530546,-0.18328 -0.877813,-0.55948 -0.347266,-0.38585 -0.511253,-0.96463 -0.163987,-0.57878 -0.163987,-1.36977 v -4.40836 h -1.032153 q -0.183279,0 -0.279742,-0.22186 -0.09646,-0.23151 -0.09646,-0.76206 0,-0.27974 0.01929,-0.47267 0.02894,-0.19292 0.07717,-0.29903 0.04823,-0.11576 0.115755,-0.16399 0.07717,-0.0482 0.173633,-0.0482 h 1.022507 v -1.91961 q 0,-0.0965 0.04823,-0.17363 0.05788,-0.0772 0.192926,-0.12541 0.144695,-0.0579 0.376206,-0.0772 0.241157,-0.0289 0.588423,-0.0289 0.356913,0 0.588424,0.0289 0.241157,0.0193 0.376205,0.0772 0.135048,0.0482 0.192926,0.12541 0.05788,0.0772 0.05788,0.17363 v 1.91961 h 1.87138 q 0.09646,0 0.163987,0.0482 0.07717,0.0482 0.125401,0.16399 0.04823,0.10611 0.06752,0.29903 0.02894,0.19293 0.02894,0.47267 0,0.53055 -0.09646,0.76206 -0.09646,0.22186 -0.279742,0.22186 H 94.09296 v 4.0418 q 0,0.70418 0.221864,1.06109 0.221865,0.34727 0.790996,0.34727 0.192926,0 0.347266,-0.0289 0.154341,-0.0386 0.270096,-0.0772 0.125402,-0.0482 0.202572,-0.0772 0.08682,-0.0386 0.154341,-0.0386 0.05788,0 0.106109,0.0386 0.05788,0.0289 0.08682,0.13505 0.02894,0.0965 0.04823,0.27009 0.02894,0.17363 0.02894,0.44373 z m 9.974258,0.84887 q 0,0.0965 -0.0579,0.17364 -0.0579,0.0675 -0.19293,0.11575 -0.13505,0.0482 -0.3762,0.0675 -0.23151,0.0289 -0.57878,0.0289 -0.35691,0 -0.59807,-0.0289 -0.23151,-0.0193 -0.36656,-0.0675 -0.13505,-0.0482 -0.19293,-0.11575 -0.0579,-0.0772 -0.0579,-0.17364 v -4.90996 q 0,-0.62701 -0.0965,-0.98392 -0.0868,-0.35691 -0.26045,-0.60771 -0.17363,-0.26045 -0.45337,-0.3955 -0.2701,-0.1447 -0.63666,-0.1447 -0.46302,0 -0.93569,0.33762 -0.47267,0.33762 -0.98392,0.98392 v 5.72025 q 0,0.0965 -0.0579,0.17364 -0.0579,0.0675 -0.20257,0.11575 -0.13505,0.0482 -0.366557,0.0675 -0.231511,0.0289 -0.588424,0.0289 -0.356913,0 -0.588424,-0.0289 -0.231511,-0.0193 -0.376205,-0.0675 -0.135048,-0.0482 -0.192926,-0.11575 -0.05788,-0.0772 -0.05788,-0.17364 v -12.68487 q 0,-0.0965 0.05788,-0.17363 0.05788,-0.0772 0.192926,-0.1254 0.144694,-0.0579 0.376205,-0.0868 0.231511,-0.0289 0.588424,-0.0289 0.356913,0 0.588424,0.0289 0.231507,0.0289 0.366557,0.0868 0.1447,0.0482 0.20257,0.1254 0.0579,0.0772 0.0579,0.17363 v 4.75562 q 0.62701,-0.61736 1.27331,-0.91639 0.65595,-0.30868 1.36013,-0.30868 0.87781,0 1.47588,0.28938 0.60772,0.28939 0.97428,0.791 0.3762,0.50161 0.54019,1.17685 0.16398,0.66559 0.16398,1.62057 z m 10.33118,-4.55304 q 0,0.44372 -0.20257,0.65594 -0.19293,0.21222 -0.54019,0.21222 h -5.23794 q 0,0.54984 0.1254,1.00322 0.13505,0.44372 0.41479,0.76205 0.28939,0.30868 0.73312,0.47267 0.45338,0.16399 1.08039,0.16399 0.63665,0 1.11896,-0.0868 0.48232,-0.0965 0.82959,-0.20257 0.35691,-0.11576 0.58842,-0.20257 0.23151,-0.0965 0.3762,-0.0965 0.0868,0 0.1447,0.0386 0.0579,0.0289 0.0965,0.11575 0.0386,0.0868 0.0482,0.25081 0.0193,0.15434 0.0193,0.3955 0,0.21221 -0.01,0.36655 -0.01,0.1447 -0.0289,0.25081 -0.0193,0.10611 -0.0579,0.18328 -0.0386,0.0675 -0.10611,0.13505 -0.0579,0.0675 -0.33762,0.18328 -0.27974,0.11575 -0.71382,0.23151 -0.43408,0.10611 -0.99357,0.18328 -0.55948,0.0868 -1.19614,0.0868 -1.14791,0 -2.01607,-0.28939 -0.85852,-0.28939 -1.4373,-0.87781 -0.57878,-0.58842 -0.86817,-1.48553 -0.27974,-0.8971 -0.27974,-2.10289 0,-1.14791 0.29904,-2.0643 0.29903,-0.92605 0.86816,-1.5627 0.56913,-0.6463 1.37942,-0.98392 0.81994,-0.33762 1.84244,-0.33762 1.08039,0 1.84244,0.31832 0.77171,0.31833 1.26367,0.88746 0.49196,0.55949 0.72347,1.33119 0.23151,0.7717 0.23151,1.67845 z m -2.35369,-0.69454 q 0.0289,-1.0225 -0.4148,-1.60128 -0.43408,-0.58843 -1.35048,-0.58843 -0.46302,0 -0.81028,0.17364 -0.33762,0.17363 -0.56913,0.47267 -0.22187,0.28939 -0.34727,0.69453 -0.11576,0.3955 -0.13505,0.84887 z m 12.17361,-3.36655 q 0,0.0482 -0.01,0.11575 0,0.0675 -0.0193,0.15434 -0.01,0.0772 -0.0386,0.18328 -0.0193,0.10611 -0.0579,0.24116 l -2.5852,7.78456 q -0.0482,0.16398 -0.13505,0.27009 -0.0772,0.0965 -0.2701,0.15434 -0.18328,0.0579 -0.51125,0.0772 -0.31833,0.0193 -0.83923,0.0193 -0.51125,0 -0.83923,-0.0289 -0.31832,-0.0193 -0.5016,-0.0772 -0.18328,-0.0579 -0.2701,-0.15434 -0.0772,-0.10611 -0.1254,-0.26045 l -2.58521,-7.78456 q -0.0579,-0.19293 -0.0965,-0.34727 -0.0289,-0.15434 -0.0386,-0.22186 0,-0.0675 0,-0.1254 0,-0.0965 0.0482,-0.16399 0.0579,-0.0772 0.19292,-0.1254 0.13505,-0.0482 0.36656,-0.0675 0.24116,-0.0193 0.59807,-0.0193 0.3955,0 0.63666,0.0289 0.24115,0.0193 0.3762,0.0675 0.1447,0.0386 0.20257,0.1254 0.0579,0.0772 0.0965,0.19292 l 1.95819,6.31832 0.0579,0.24116 0.0579,-0.24116 1.92926,-6.31832 q 0.0289,-0.11575 0.0868,-0.19292 0.0675,-0.0868 0.20258,-0.1254 0.13504,-0.0482 0.35691,-0.0675 0.23151,-0.0289 0.59807,-0.0289 0.35691,0 0.57878,0.0193 0.23151,0.0193 0.35691,0.0675 0.1254,0.0482 0.17363,0.1254 0.0482,0.0675 0.0482,0.16399 z m 9.19291,4.06109 q 0,0.44372 -0.20257,0.65594 -0.19292,0.21222 -0.54019,0.21222 h -5.23793 q 0,0.54984 0.1254,1.00322 0.13505,0.44372 0.41479,0.76205 0.28939,0.30868 0.73312,0.47267 0.45337,0.16399 1.08038,0.16399 0.63665,0 1.11897,-0.0868 0.48231,-0.0965 0.82958,-0.20257 0.35691,-0.11576 0.58842,-0.20257 0.23151,-0.0965 0.37621,-0.0965 0.0868,0 0.14469,0.0386 0.0579,0.0289 0.0965,0.11575 0.0386,0.0868 0.0482,0.25081 0.0193,0.15434 0.0193,0.3955 0,0.21221 -0.01,0.36655 -0.01,0.1447 -0.0289,0.25081 -0.0193,0.10611 -0.0579,0.18328 -0.0386,0.0675 -0.10611,0.13505 -0.0579,0.0675 -0.33762,0.18328 -0.27974,0.11575 -0.71383,0.23151 -0.43408,0.10611 -0.99356,0.18328 -0.55949,0.0868 -1.19614,0.0868 -1.14791,0 -2.01608,-0.28939 -0.85852,-0.28939 -1.4373,-0.87781 -0.57877,-0.58842 -0.86816,-1.48553 -0.27974,-0.8971 -0.27974,-2.10289 0,-1.14791 0.29903,-2.0643 0.29904,-0.92605 0.86817,-1.5627 0.56913,-0.6463 1.37942,-0.98392 0.81993,-0.33762 1.84244,-0.33762 1.08038,0 1.84244,0.31832 0.7717,0.31833 1.26366,0.88746 0.49196,0.55949 0.72347,1.33119 0.23151,0.7717 0.23151,1.67845 z m -2.35369,-0.69454 q 0.0289,-1.0225 -0.41479,-1.60128 -0.43408,-0.58843 -1.35048,-0.58843 -0.46302,0 -0.81029,0.17364 -0.33762,0.17363 -0.56913,0.47267 -0.22186,0.28939 -0.34727,0.69453 -0.11575,0.3955 -0.13504,0.84887 z m 12.56911,5.24758 q 0,0.0965 -0.0579,0.17364 -0.0579,0.0675 -0.19293,0.11575 -0.13505,0.0482 -0.3762,0.0675 -0.23152,0.0289 -0.57878,0.0289 -0.35691,0 -0.59807,-0.0289 -0.23151,-0.0193 -0.36656,-0.0675 -0.13505,-0.0482 -0.19293,-0.11575 -0.0579,-0.0772 -0.0579,-0.17364 v -4.90996 q 0,-0.62701 -0.0965,-0.98392 -0.0868,-0.35691 -0.26045,-0.60771 -0.17363,-0.26045 -0.45337,-0.3955 -0.2701,-0.1447 -0.63666,-0.1447 -0.46302,0 -0.93569,0.33762 -0.47267,0.33762 -0.98392,0.98392 v 5.72025 q 0,0.0965 -0.0579,0.17364 -0.0579,0.0675 -0.20257,0.11575 -0.13505,0.0482 -0.36656,0.0675 -0.23151,0.0289 -0.58842,0.0289 -0.35691,0 -0.58842,-0.0289 -0.23152,-0.0193 -0.37621,-0.0675 -0.13505,-0.0482 -0.19293,-0.11575 -0.0579,-0.0772 -0.0579,-0.17364 v -8.60449 q 0,-0.0965 0.0482,-0.16398 0.0482,-0.0772 0.17363,-0.1254 0.1254,-0.0482 0.31833,-0.0675 0.20257,-0.0289 0.50161,-0.0289 0.30868,0 0.51125,0.0289 0.20257,0.0193 0.30868,0.0675 0.11576,0.0482 0.16399,0.1254 0.0482,0.0675 0.0482,0.16398 v 0.99357 q 0.71382,-0.7717 1.44694,-1.15755 0.74277,-0.38585 1.54341,-0.38585 0.87781,0 1.47588,0.28938 0.60772,0.28939 0.97428,0.791 0.3762,0.49196 0.54019,1.15755 0.16398,0.6656 0.16398,1.60129 z m 4.8135,0 q 0,0.0965 -0.0579,0.17364 -0.0579,0.0675 -0.20258,0.11575 -0.13504,0.0482 -0.36656,0.0675 -0.23151,0.0289 -0.58842,0.0289 -0.35691,0 -0.58842,-0.0289 -0.23151,-0.0193 -0.37621,-0.0675 -0.13505,-0.0482 -0.19292,-0.11575 -0.0579,-0.0772 -0.0579,-0.17364 v -8.58519 q 0,-0.0965 0.0579,-0.16399 0.0579,-0.0772 0.19292,-0.1254 0.1447,-0.0579 0.37621,-0.0868 0.23151,-0.0289 0.58842,-0.0289 0.35691,0 0.58842,0.0289 0.23152,0.0289 0.36656,0.0868 0.1447,0.0482 0.20258,0.1254 0.0579,0.0675 0.0579,0.16399 z m 0.18328,-11.51767 q 0,0.73312 -0.29903,1.01287 -0.29904,0.27974 -1.10933,0.27974 -0.81993,0 -1.10932,-0.2701 -0.27974,-0.27009 -0.27974,-0.97427 0,-0.73312 0.28939,-1.01286 0.29903,-0.28939 1.11897,-0.28939 0.81029,0 1.09967,0.27974 0.28939,0.2701 0.28939,0.97427 z m 10.45658,11.51767 q 0,0.0965 -0.0579,0.17364 -0.0579,0.0675 -0.19292,0.11575 -0.13505,0.0482 -0.37621,0.0675 -0.23151,0.0289 -0.57877,0.0289 -0.35692,0 -0.59807,-0.0289 -0.23151,-0.0193 -0.36656,-0.0675 -0.13505,-0.0482 -0.19293,-0.11575 -0.0579,-0.0772 -0.0579,-0.17364 v -4.90996 q 0,-0.62701 -0.0965,-0.98392 -0.0868,-0.35691 -0.26045,-0.60771 -0.17363,-0.26045 -0.45337,-0.3955 -0.2701,-0.1447 -0.63666,-0.1447 -0.46302,0 -0.93569,0.33762 -0.47267,0.33762 -0.98392,0.98392 v 5.72025 q 0,0.0965 -0.0579,0.17364 -0.0579,0.0675 -0.20257,0.11575 -0.13505,0.0482 -0.36656,0.0675 -0.23151,0.0289 -0.58842,0.0289 -0.35692,0 -0.58843,-0.0289 -0.23151,-0.0193 -0.3762,-0.0675 -0.13505,-0.0482 -0.19293,-0.11575 -0.0579,-0.0772 -0.0579,-0.17364 v -8.60449 q 0,-0.0965 0.0482,-0.16398 0.0482,-0.0772 0.17363,-0.1254 0.1254,-0.0482 0.31833,-0.0675 0.20257,-0.0289 0.5016,-0.0289 0.30868,0 0.51126,0.0289 0.20257,0.0193 0.30868,0.0675 0.11575,0.0482 0.16398,0.1254 0.0482,0.0675 0.0482,0.16398 v 0.99357 q 0.71382,-0.7717 1.44694,-1.15755 0.74276,-0.38585 1.54341,-0.38585 0.87781,0 1.47588,0.28938 0.60771,0.28939 0.97427,0.791 0.37621,0.49196 0.5402,1.15755 0.16398,0.6656 0.16398,1.60129 z"
         id="text31"
         style="-inkscape-font-specification:'Calibri, Bold';fill:#333333;stroke-width:2"
         aria-label="thevenin" /><g
         id="ellipse31"><path
           style="color:#000000;fill:#333333;-inkscape-stroke:none"
           d="m 160.56097,143.36703 a 1.4738898,1.473888 0 0 1 -1.47389,1.47389 1.4738898,1.473888 0 0 1 -1.47389,-1.47389 1.4738898,1.473888 0 0 1 1.47389,-1.47388 1.4738898,1.473888 0 0 1 1.47389,1.47388 z"
           id="path21" /><path
           style="color:#000000;fill:#333333;-inkscape-stroke:none"
           d="m 159.08789,141.11719 c -1.23345,0 -2.25,1.01655 -2.25,2.25 0,1.23344 1.01655,2.25 2.25,2.25 1.23345,0 2.25,-1.01656 2.25,-2.25 0,-1.23345 -1.01655,-2.25 -2.25,-2.25 z m 0,1.55273 c 0.39457,0 0.69727,0.3027 0.69727,0.69727 0,0.39456 -0.3027,0.69726 -0.69727,0.69726 -0.39457,0 -0.69922,-0.3027 -0.69922,-0.69726 0,-0.39457 0.30465,-0.69727 0.69922,-0.69727 z"
           id="path22" /></g><g
         id="ellipse32"><path
           style="color:#000000;fill:#333333;-inkscape-stroke:none"
           d="m 160.56097,117.81844 a 1.4738898,1.473888 0 0 1 -1.47389,1.47389 1.4738898,1.473888 0 0 1 -1.47389,-1.47389 1.4738898,1.473888 0 0 1 1.47389,-1.47388 1.4738898,1.473888 0 0 1 1.47389,1.47388 z"
           id="path23" /><path
           style="color:#000000;fill:#333333;-inkscape-stroke:none"
           d="m 159.08789,115.56836 c -1.23345,0 -2.25,1.01655 -2.25,2.25 0,1.23345 1.01655,2.25 2.25,2.25 1.23345,0 2.25,-1.01655 2.25,-2.25 0,-1.23345 -1.01655,-2.25 -2.25,-2.25 z m 0,1.55273 c 0.39457,0 0.69727,0.30271 0.69727,0.69727 0,0.39456 -0.3027,0.69726 -0.69727,0.69727 -0.39457,0 -0.69922,-0.30271 -0.69922,-0.69727 0,-0.39456 0.30465,-0.69727 0.69922,-0.69727 z"
           id="path32" /></g><g
         id="rect32"><path
           style="color:#000000;fill:#333333;-inkscape-stroke:none"
           d="m 96.451584,116.26021 h 8.961216 c 0.85486,0 1.54308,0.68821 1.54308,1.54308 0,0.85487 -0.68822,1.54308 -1.54308,1.54308 h -8.961216 c -0.854868,0 -1.543083,-0.68821 -1.543083,-1.54308 0,-0.85487 0.688215,-1.54308 1.543083,-1.54308 z"
           id="path42" /><path
           style="color:#000000;fill:#333333;-inkscape-stroke:none"
           d="m 96.451172,115.24023 c -1.402706,0 -2.5625,1.1598 -2.5625,2.5625 0,1.40271 1.159794,2.56446 2.5625,2.56446 h 8.960938 c 1.40271,0 2.56445,-1.16175 2.56445,-2.56446 0,-1.4027 -1.16174,-2.5625 -2.56445,-2.5625 z m 0,2.04102 h 8.960938 c 0.30703,0 0.52344,0.21446 0.52344,0.52148 0,0.30703 -0.21641,0.52344 -0.52344,0.52344 h -8.960938 c -0.307029,0 -0.521485,-0.21641 -0.521485,-0.52344 0,-0.30702 0.214456,-0.52148 0.521485,-0.52148 z"
           id="path61" /></g><g
         id="rect33"><path
           style="color:#000000;fill:#333333;-inkscape-stroke:none"
           d="m 127.48077,116.26021 h 8.96121 c 0.85487,0 1.54308,0.68821 1.54308,1.54308 0,0.85487 -0.68821,1.54308 -1.54308,1.54308 h -8.96121 c -0.85487,0 -1.54309,-0.68821 -1.54309,-1.54308 0,-0.85487 0.68822,-1.54308 1.54309,-1.54308 z"
           id="path62" /><path
           style="color:#000000;fill:#333333;-inkscape-stroke:none"
           d="m 127.48047,115.24023 c -1.40271,0 -2.56445,1.1598 -2.56445,2.5625 0,1.40271 1.16174,2.56446 2.56445,2.56446 h 8.96094 c 1.4027,0 2.56445,-1.16175 2.56445,-2.56446 0,-1.4027 -1.16175,-2.5625 -2.56445,-2.5625 z m 0,2.04102 h 8.96094 c 0.30702,0 0.52343,0.21446 0.52343,0.52148 0,0.30703 -0.21641,0.52344 -0.52343,0.52344 h -8.96094 c -0.30703,0 -0.52149,-0.21641 -0.52149,-0.52344 0,-0.30702 0.21446,-0.52148 0.52149,-0.52148 z"
           id="path64" /></g><g
         id="path33"><path
           style="color:#000000;fill:#333333;-inkscape-stroke:none"
           d="m 115.44678,109.72136 13.24148,-0.032"
           id="path65" /><path
           style="color:#000000;fill:#333333;-inkscape-stroke:none"
           d="m 128.68555,108.68945 -13.24024,0.0312 0.004,2 13.24219,-0.0312 z"
           id="path67" /></g><g
         id="path34"><path
           style="color:#000000;fill:#333333;-inkscape-stroke:none"
           d="m 116.44678,109.68939 v 8.1139"
           id="path68" /><path
           style="color:#000000;fill:#333333;-inkscape-stroke:none"
           d="m 115.44727,109.68945 v 8.11328 h 2 v -8.11328 z"
           id="path69" /></g><g
         id="path35"><path
           style="color:#000000;fill:#333333;-inkscape-stroke:none"
           d="m 135.23207,109.72136 13.24148,-0.032"
           id="path70" /><path
           style="color:#000000;fill:#333333;-inkscape-stroke:none"
           d="m 148.4707,108.68945 -13.24023,0.0312 0.004,2 13.24219,-0.0312 z"
           id="path71" /></g><g
         id="path36"><path
           style="color:#000000;fill:#333333;-inkscape-stroke:none"
           d="m 147.47596,109.68939 v 8.1139"
           id="path72" /><path
           style="color:#000000;fill:#333333;-inkscape-stroke:none"
           d="m 146.47656,109.68945 v 8.11328 h 2 v -8.11328 z"
           id="path73" /></g><g
         id="path37"><path
           style="color:#000000;fill:#333333;-inkscape-stroke:none"
           d="m 128.68826,106.67247 v 6.03382"
           id="path74" /><path
           style="color:#000000;fill:#333333;-inkscape-stroke:none"
           d="m 127.6875,106.67188 v 6.03515 h 2 v -6.03515 z"
           id="path75" /></g><g
         id="path38"><path
           style="color:#000000;fill:#333333;-inkscape-stroke:none"
           d="m 135.22965,106.67247 v 6.03382"
           id="path76" /><path
           style="color:#000000;fill:#333333;-inkscape-stroke:none"
           d="m 134.23047,106.67188 v 6.03515 h 2 v -6.03515 z"
           id="path77" /></g><path
         id="path27"
         style="fill:#325d80;stroke-width:0.499999"
         d="m 79.92253,113.43749 a 19.131355,19.131355 0 0 1 7.003104,14.79575 v 0 a 19.131355,19.131355 0 0 1 -19.131355,19.13135 19.131355,19.131355 0 0 1 -16.27718,-9.07838" /><path
         id="path28"
         style="fill:#4b8bbe;stroke-width:0.499999"
         d="m 51.517099,138.28621 a 19.131355,19.131355 0 0 1 -2.854175,-10.05297 19.131355,19.131355 0 0 1 19.131355,-19.13136 19.131355,19.131355 0 0 1 12.128251,4.33561" /><path
         id="path78"
         style="-inkscape-font-specification:'Bauhaus 93, Normal';fill:#ffe740;stroke-width:0.601801"
         d="m 71.319645,120.96288 h -1.361157 v -5.73195 h -4.328935 v 0 5.73195 h -5.463232 v 4.20957 h 5.463232 v 0.76791" /><path
         id="path79"
         style="-inkscape-font-specification:'Bauhaus 93, Normal';fill:#e5cf3a;stroke-width:0.601801"
         d="m 65.629553,125.94036 v 1.68982 3.25974 h 4.328935 v -5.71747 h 5.463749 v -4.20957 h -2.171444 -1.931148" /><path
         style="-inkscape-font-specification:'Bauhaus 93, Normal';fill:#e5cf3a;stroke-width:0.738199"
         d="m 73.212918,137.29162 v 3.74674 H 62.375636 v -3.74674 z"
         id="text30"
         aria-label="-" /></g></g></svg>
