<?xml version="1.0" encoding="UTF-8" standalone="no"?>
<!-- Created with Inkscape (http://www.inkscape.org/) -->

<svg
   width="11.346893mm"
   height="11.90625mm"
   viewBox="0 0 11.346893 11.90625"
   version="1.1"
   id="svg1"
   inkscape:version="1.3 (0e150ed6c4, 2023-07-21)"
   sodipodi:docname="icons.svg"
   xmlns:inkscape="http://www.inkscape.org/namespaces/inkscape"
   xmlns:sodipodi="http://sodipodi.sourceforge.net/DTD/sodipodi-0.dtd"
   xmlns="http://www.w3.org/2000/svg"
   xmlns:svg="http://www.w3.org/2000/svg">
  <sodipodi:namedview
     id="namedview1"
     pagecolor="#ffffff"
     bordercolor="#000000"
     borderopacity="0.25"
     inkscape:showpageshadow="2"
     inkscape:pageopacity="0.0"
     inkscape:pagecheckerboard="0"
     inkscape:deskcolor="#d1d1d1"
     inkscape:document-units="mm"
     inkscape:zoom="2.0686842"
     inkscape:cx="212.21219"
     inkscape:cy="304.29971"
     inkscape:window-width="1920"
     inkscape:window-height="1017"
     inkscape:window-x="-8"
     inkscape:window-y="296"
     inkscape:window-maximized="1"
     inkscape:current-layer="layer1" />
  <defs
     id="defs1" />
  <g
     inkscape:label="Layer 1"
     inkscape:groupmode="layer"
     id="layer1"
     transform="translate(-73.999529,-38.786109)">
    <g
       id="g1"
       transform="translate(-3.9648795,-8.98372)">
      <path
         d="m 87.872964,54.40217 c -0.159809,0 -0.279676,-0.119869 -0.279676,-0.319631 v -5.154048 c 0,-0.279676 -0.199773,-0.5194 -0.479447,-0.5194 h -6.95197 c -0.279679,0 -0.479448,0.239724 -0.479448,0.5194 v 3.835571 c 0,0.159809 -0.119868,0.31963 -0.279676,0.31963 -0.159809,0 -0.279678,-0.119868 -0.279678,-0.31963 v -3.835571 c 0,-0.639261 0.479447,-1.158661 1.038802,-1.158661 h 6.95197 c 0.559354,0 1.038802,0.5194 1.038802,1.158661 v 5.154048 c 0,0.15981 -0.15981,0.319631 -0.279679,0.319631 z"
         id="path1-3"
         style="overflow:hidden;fill:#333333;fill-opacity:1;stroke-width:0.015607" />
      <path
         d="m 80.920994,49.927338 h 5.433724 c 0.15981,0 0.279678,-0.15981 0.279678,-0.319631 0,-0.15981 -0.119868,-0.319631 -0.279678,-0.319631 h -5.433724 c -0.15981,0 -0.279679,0.15981 -0.279679,0.319631 0,0.15981 0.119869,0.319631 0.279679,0.319631 z m 0,1.917786 h 5.433724 c 0.15981,0 0.279678,-0.159809 0.279678,-0.31963 0,-0.15981 -0.119868,-0.319631 -0.279678,-0.319631 h -5.433724 c -0.15981,0 -0.279679,0.15981 -0.279679,0.319631 0,0.159809 0.119869,0.31963 0.279679,0.31963 z m 3.635802,1.87783 h 1.917784 c 0.0799,0 0.119868,-0.15981 0.119868,-0.319631 0,-0.15981 -0.0799,-0.319631 -0.119868,-0.319631 h -1.917784 c -0.07991,0 -0.119869,0.15981 -0.119869,0.319631 0,0.15981 0.03994,0.319631 0.119869,0.319631 z m -4.195157,3.795618 h 0.998847 l -0.519399,-1.398387 z m 4.315018,-1.558201 h -0.439492 v 1.038802 h 0.439492 c 0.15981,0 0.279676,0 0.399538,-0.03996 0.119869,-0.03996 0.199774,-0.07991 0.239724,-0.15981 0.03994,-0.07991 0.07991,-0.15981 0.07991,-0.319631 0,-0.159809 -0.03996,-0.279676 -0.119869,-0.359585 -0.119869,-0.0799 -0.319631,-0.15981 -0.599307,-0.15981 z"
         id="path2"
         style="overflow:hidden;fill:#333333;fill-opacity:1;stroke-width:0.015607" />
      <path
         d="M 88.632088,54.522032 H 84.157255 L 83.517994,53.603094 C 83.398125,53.403321 83.198363,53.323416 82.95864,53.323416 h -4.315016 c -0.359585,0 -0.679216,0.319631 -0.679216,0.679216 v 4.994232 c 0,0.359585 0.319631,0.679216 0.679216,0.679216 h 9.988464 c 0.359585,0 0.679216,-0.319631 0.679216,-0.679216 v -3.795616 c 0,-0.39954 -0.279676,-0.679216 -0.679216,-0.679216 z m -6.31271,4.275063 c -0.0799,0.07991 -0.159809,0.07991 -0.239723,0.07991 -0.03996,0 -0.0799,0 -0.119869,-0.03994 -0.03994,-0.03996 -0.0799,-0.03996 -0.0799,-0.07991 -0.03996,-0.03994 -0.03996,-0.0799 -0.0799,-0.15981 -0.03996,-0.0799 -0.03996,-0.119868 -0.0799,-0.199773 l -0.15981,-0.439493 h -1.35843 l -0.15981,0.439493 c -0.0799,0.159809 -0.119868,0.279676 -0.159809,0.359583 -0.03996,0.07991 -0.119869,0.07991 -0.199774,0.07991 -0.0799,0 -0.159809,-0.03996 -0.239723,-0.07991 -0.07991,-0.0799 -0.07991,-0.119869 -0.07991,-0.199774 0,-0.03996 0,-0.0799 0.03996,-0.159809 0,-0.03996 0.03996,-0.119869 0.0799,-0.199774 l 0.878985,-2.197462 c 0.03996,-0.0799 0.03996,-0.119869 0.0799,-0.239724 0.03996,-0.0799 0.0799,-0.159809 0.119869,-0.199773 0.03996,-0.03996 0.07991,-0.119869 0.15981,-0.15981 0.0799,-0.03996 0.159809,-0.03996 0.239723,-0.03996 0.0799,0 0.15981,0 0.239721,0.03996 0.0799,0.03996 0.119869,0.07991 0.15981,0.119869 0.03996,0.03996 0.0799,0.119868 0.0799,0.199773 0.03996,0.07991 0.07991,0.15981 0.119869,0.279678 l 0.878985,2.157508 c 0.0799,0.15981 0.119868,0.279676 0.119868,0.359583 -0.119868,0.119869 -0.15981,0.199774 -0.239723,0.279679 z m 3.436033,-1.558201 c -0.199773,0.15981 -0.519402,0.279678 -0.958894,0.279678 h -0.639262 v 0.958892 c 0,0.119869 -0.03996,0.239724 -0.0799,0.319631 -0.0799,0.07991 -0.15981,0.119869 -0.239724,0.119869 -0.119869,0 -0.199773,-0.03996 -0.239724,-0.119869 -0.0799,-0.0799 -0.0799,-0.15981 -0.0799,-0.319631 v -2.597 c 0,-0.15981 0.03996,-0.239724 0.119868,-0.319631 0.0799,-0.07991 0.15981,-0.07991 0.319631,-0.07991 h 0.878985 c 0.239724,0 0.439492,0 0.599309,0.03996 0.119869,0.03996 0.239721,0.119869 0.359583,0.199774 0.119869,0.0799 0.15981,0.199773 0.239724,0.31963 0.03996,0.119869 0.0799,0.279679 0.0799,0.439493 -0.03996,0.359585 -0.119868,0.599309 -0.359583,0.759123 z m 2.197463,1.23857 c 0,0.119869 -0.03996,0.239724 -0.0799,0.319631 -0.0799,0.07991 -0.15981,0.119869 -0.239724,0.119869 -0.0799,0 -0.159809,-0.03996 -0.239721,-0.119869 -0.0799,-0.0799 -0.0799,-0.15981 -0.0799,-0.319631 v -2.636955 c 0,-0.119868 0.03996,-0.239723 0.0799,-0.31963 0.0799,-0.07991 0.15981,-0.119869 0.239721,-0.119869 0.119869,0 0.199774,0.03996 0.239724,0.119869 0.0799,0.0799 0.0799,0.159809 0.0799,0.31963 z"
         id="path3"
         style="overflow:hidden;fill:#333333;fill-opacity:1;stroke-width:0.015607" />
    </g>
  </g>
</svg>
