<?xml version="1.0" encoding="UTF-8" standalone="no"?>
<!-- Created with Inkscape (http://www.inkscape.org/) -->

<svg
   width="12.421464mm"
   height="11.906258mm"
   viewBox="0 0 12.421464 11.906258"
   version="1.1"
   id="svg1"
   inkscape:version="1.3 (0e150ed6c4, 2023-07-21)"
   sodipodi:docname="icons.svg"
   xmlns:inkscape="http://www.inkscape.org/namespaces/inkscape"
   xmlns:sodipodi="http://sodipodi.sourceforge.net/DTD/sodipodi-0.dtd"
   xmlns="http://www.w3.org/2000/svg"
   xmlns:svg="http://www.w3.org/2000/svg">
  <sodipodi:namedview
     id="namedview1"
     pagecolor="#ffffff"
     bordercolor="#000000"
     borderopacity="0.25"
     inkscape:showpageshadow="2"
     inkscape:pageopacity="0.0"
     inkscape:pagecheckerboard="0"
     inkscape:deskcolor="#d1d1d1"
     inkscape:document-units="mm"
     inkscape:zoom="2.9255612"
     inkscape:cx="120.3188"
     inkscape:cy="250.37931"
     inkscape:window-width="1920"
     inkscape:window-height="1017"
     inkscape:window-x="-8"
     inkscape:window-y="-8"
     inkscape:window-maximized="1"
     inkscape:current-layer="layer1" />
  <defs
     id="defs1" />
  <g
     inkscape:label="Layer 1"
     inkscape:groupmode="layer"
     id="layer1"
     transform="translate(-47.656053,-59.948706)">
    <path
       fill-rule="nonzero"
       d="m 49.358372,61.783731 c 0,0.191052 -0.15488,0.345932 -0.345956,0.345932 -0.191053,0 -0.345956,-0.15488 -0.345956,-0.345932 0,-0.504913 0.206408,-0.963828 0.538755,-1.296269 0.332444,-0.332346 0.791381,-0.538755 1.296268,-0.538755 h 6.818858 c 0.504863,0 0.963728,0.206481 1.296099,0.538852 0.332492,0.332491 0.538927,0.791478 0.538927,1.296172 v 0.149033 l 0.594069,-2.5e-5 c 0.04912,0 0.09505,0.0105 0.139279,0.03128 0.04996,0.02346 0.08892,0.05579 0.119607,0.09694 l -6.9e-4,5.18e-4 c 0.02385,0.03192 0.0417,0.06528 0.05318,0.101675 l -8.62e-4,3.45e-4 c 0.01154,0.03654 0.01757,0.07227 0.01757,0.108348 v 1.540014 c 0,0.03326 -0.0061,0.06669 -0.01849,0.09906 a 0.27154904,0.27154904 0 0 1 -0.01739,0.03873 0.29219483,0.29219483 0 0 1 -0.07735,0.09042 0.30798849,0.30798849 0 0 1 -0.05408,0.03523 l -1.72e-4,-3.46e-4 -8.61e-4,3.46e-4 c -0.04205,0.02101 -0.08472,0.03164 -0.128485,0.03164 h -0.625317 v 0.67954 h -0.115312 l 0.709309,7.2e-5 c 0.04971,0 0.0959,0.01041 0.140275,0.03125 l -1.73e-4,3.45e-4 c 0.04938,0.02337 0.08816,0.05548 0.118852,0.09641 l -6.9e-4,6.89e-4 c 0.02096,0.02795 0.037,0.05679 0.04816,0.08646 0.01439,0.0384 0.02162,0.07661 0.02162,0.114654 v 1.54909 c 0,0.04465 -0.0105,0.08768 -0.03169,0.129528 a 0.30810979,0.30810979 0 0 1 -0.0567,0.07906 l -5.17e-4,-5.17e-4 c -0.02482,0.02482 -0.05136,0.0442 -0.07955,0.05815 l -5.18e-4,-8.63e-4 c -0.04197,0.02098 -0.08457,0.03139 -0.12795,0.03139 l -0.625146,-4.7e-5 v 0.735046 h 0.593901 c 0.03974,0 0.07739,0.0066 0.11458,0.01963 0.04805,0.01691 0.08719,0.04161 0.119678,0.07409 l -3.44e-4,1.73e-4 c 0.0336,0.03301 0.05844,0.07295 0.07435,0.118876 l -3.46e-4,-4.8e-5 3.46e-4,8.62e-4 c 0.01315,0.0378 0.01977,0.07634 0.01977,0.11448 v 1.537861 c 0,0.02657 -0.0036,0.05339 -0.01079,0.08048 a 0.2930682,0.2930682 0 0 1 -0.07749,0.13802 0.30556242,0.30556242 0 0 1 -0.07907,0.05781 c -0.04175,0.02112 -0.08488,0.0315 -0.129478,0.0315 l -0.74046,5.2e-5 h 0.115263 v 0.148958 c 0,0.504665 -0.206579,0.963508 -0.539023,1.295996 -0.332492,0.332471 -0.791404,0.539029 -1.296002,0.539029 h -6.818858 c -0.504669,0 -0.96363,-0.206463 -1.296123,-0.538951 -0.332394,-0.332393 -0.538901,-0.791193 -0.538901,-1.296074 0,-0.191076 0.154904,-0.345962 0.345957,-0.345962 0.191077,0 0.345957,0.154886 0.345957,0.345962 0,0.313857 0.128824,0.599597 0.336155,0.806908 0.207402,0.207424 0.493216,0.336201 0.806955,0.336201 h 6.818858 c 0.313666,0 0.599432,-0.128873 0.806835,-0.336279 0.207429,-0.207406 0.336278,-0.493164 0.336278,-0.80683 v -8.236088 c 0,-0.313763 -0.128777,-0.5996 -0.33618,-0.807006 -0.207283,-0.207283 -0.493,-0.336105 -0.806933,-0.336105 h -6.818858 c -0.313955,0 -0.599771,0.128677 -0.807102,0.336009 -0.207307,0.207306 -0.336008,0.49312 -0.336008,0.807102 z m 7.428236,3.813695 c 0,0.159804 -0.01257,0.314078 -0.03753,0.462432 -0.02499,0.148838 -0.0625,0.29069 -0.112231,0.425241 l -0.0022,0.0055 c -0.05037,0.134185 -0.111381,0.253959 -0.182634,0.35908 -0.07342,0.1083 -0.157694,0.201097 -0.252167,0.27805 -0.09571,0.07788 -0.198911,0.136224 -0.309225,0.175113 -0.111089,0.03914 -0.228802,0.05866 -0.35287,0.05866 -0.104006,0 -0.200829,-0.01623 -0.290667,-0.04843 -0.09047,-0.03241 -0.172177,-0.08061 -0.245226,-0.144204 l -0.0057,-0.0055 c -0.0704,-0.06344 -0.126616,-0.135447 -0.168806,-0.215724 l -0.0023,-0.0048 a 0.76583479,0.76583479 0 0 1 -0.03539,-0.07904 1.1341109,1.1341109 0 0 1 -0.0829,0.111695 1.0936686,1.0936686 0 0 1 -0.236784,0.210194 c -0.08894,0.05857 -0.186831,0.10255 -0.293116,0.131952 -0.10534,0.02909 -0.217837,0.04377 -0.337077,0.04377 -0.176764,0 -0.335404,-0.03071 -0.475824,-0.092 -0.14156,-0.06181 -0.263423,-0.154493 -0.365266,-0.277979 -0.100538,-0.121885 -0.175672,-0.264974 -0.225237,-0.428828 -0.04883,-0.161578 -0.07322,-0.34358 -0.07322,-0.545939 0,-0.233896 0.03418,-0.447098 0.10238,-0.639145 0.06883,-0.193648 0.172079,-0.365096 0.309614,-0.514009 l 3.44e-4,-3.45e-4 c 0.138625,-0.149445 0.299352,-0.261627 0.481962,-0.336494 0.181832,-0.07453 0.3839,-0.111795 0.606102,-0.111795 0.07672,0 0.15949,0.0036 0.24792,0.01083 0.08573,0.007 0.176955,0.01769 0.273053,0.03198 l 0.0025,5.18e-4 c 0.09345,0.01339 0.184019,0.02998 0.271308,0.0494 0.0885,0.01965 0.172395,0.04221 0.25151,0.06737 a 0.08614944,0.08614944 0 0 1 0.05999,0.08651 l -0.08198,1.546977 1.72e-4,0.07217 c 0,0.177077 0.03086,0.306992 0.09248,0.389625 l 0.0029,0.0043 c 0.05572,0.072 0.141365,0.108081 0.256604,0.108081 0.08186,0 0.156019,-0.02414 0.222396,-0.0723 0.07077,-0.05133 0.134403,-0.130278 0.190543,-0.236565 0.05881,-0.111308 0.103253,-0.239839 0.132972,-0.385404 0.03004,-0.147165 0.0452,-0.313179 0.0452,-0.497754 0,-0.193381 -0.01953,-0.373712 -0.05866,-0.54128 -0.03905,-0.167326 -0.0975,-0.322254 -0.175209,-0.464881 l -1.73e-4,-5.17e-4 c -0.07725,-0.142363 -0.170845,-0.268155 -0.280698,-0.377279 -0.109899,-0.109196 -0.236687,-0.202431 -0.379921,-0.279651 -0.143089,-0.07693 -0.297291,-0.134891 -0.462431,-0.173609 -0.165603,-0.03882 -0.342925,-0.05829 -0.531696,-0.05829 -0.239162,0 -0.462311,0.02458 -0.669205,0.07383 -0.205828,0.04898 -0.39603,0.122469 -0.57044,0.22048 -0.174167,0.09794 -0.327614,0.216429 -0.460004,0.355321 -0.1329,0.139376 -0.245373,0.299764 -0.337249,0.480846 -0.09233,0.182002 -0.161818,0.378731 -0.20818,0.590066 -0.04651,0.212062 -0.06983,0.439093 -0.06983,0.68119 0,0.326547 0.04268,0.614328 0.128121,0.863387 0.08448,0.246172 0.210825,0.455007 0.378999,0.626335 0.167665,0.170843 0.372933,0.299231 0.615808,0.384992 0.245687,0.08673 0.5307,0.130183 0.854872,0.130183 0.451853,0 0.921925,-0.09282 1.409055,-0.278366 a 0.08644057,0.08644057 0 0 1 0.117155,0.08077 l 7.2e-5,0.439699 a 0.08648909,0.08648909 0 0 1 -0.05846,0.08186 c -0.215628,0.0937 -0.445109,0.164076 -0.688565,0.210971 -0.245712,0.04725 -0.50547,0.07096 -0.77925,0.07096 -0.409229,0 -0.77372,-0.05677 -1.093427,-0.16997 -0.322253,-0.114196 -0.598558,-0.285862 -0.828767,-0.514928 -0.230038,-0.228245 -0.402266,-0.502294 -0.516872,-0.821709 -0.113855,-0.317134 -0.170624,-0.677817 -0.170624,-1.081708 0,-0.29222 0.03016,-0.569298 0.09047,-0.831144 0.06045,-0.262184 0.151313,-0.508552 0.272567,-0.738929 0.121668,-0.230526 0.269513,-0.435429 0.443265,-0.614475 0.173854,-0.179066 0.373542,-0.332223 0.598826,-0.459083 l 0.0064,-0.0033 c 0.222883,-0.125088 0.461875,-0.219049 0.716587,-0.281665 0.257428,-0.06324 0.530482,-0.09498 0.818675,-0.09498 0.242971,0 0.473179,0.02564 0.69048,0.07693 0.21791,0.05146 0.422645,0.128945 0.614328,0.232368 0.191635,0.103737 0.361944,0.229481 0.510443,0.377009 0.148088,0.147069 0.274438,0.315947 0.378757,0.506489 0.104782,0.189936 0.183144,0.394308 0.23523,0.612605 0.05194,0.218175 0.07793,0.450325 0.07793,0.696183 z m -3.415021,0.432882 c 0,0.260293 0.04765,0.452559 0.142896,0.576723 0.08979,0.117034 0.227854,0.175599 0.414346,0.175599 0.19896,0 0.351586,-0.07421 0.457969,-0.222446 0.11383,-0.158591 0.180062,-0.40195 0.198864,-0.729686 l 0.04345,-0.790533 a 1.7360895,1.7360895 0 0 0 -0.169485,-0.0304 c -0.08093,-0.01041 -0.167325,-0.01572 -0.259055,-0.01572 -0.131226,0 -0.247337,0.02237 -0.348261,0.06698 -0.09937,0.04393 -0.185447,0.110313 -0.257914,0.198912 l -0.0038,0.0042 c -0.07139,0.08877 -0.125574,0.195638 -0.162087,0.320072 -0.03792,0.129139 -0.05696,0.278123 -0.05696,0.446225 z m -5.170494,3.122434 c -0.300978,0 -0.54504,-0.244055 -0.54504,-0.545035 0,-0.30098 0.244062,-0.545035 0.54504,-0.545035 h 1.16133 c 0.300977,0 0.54504,0.244055 0.54504,0.545035 0,0.30098 -0.244063,0.545035 -0.54504,0.545035 z m 0,-1.803942 c -0.300978,0 -0.54504,-0.244063 -0.54504,-0.545039 0,-0.300978 0.244062,-0.545039 0.54504,-0.545039 h 1.16133 c 0.300977,0 0.54504,0.244061 0.54504,0.545039 0,0.300976 -0.244063,0.545039 -0.54504,0.545039 z m 0,-1.803946 c -0.300978,0 -0.54504,-0.244062 -0.54504,-0.545039 0,-0.300978 0.244062,-0.54504 0.54504,-0.54504 h 1.16133 c 0.300977,0 0.54504,0.244062 0.54504,0.54504 0,0.300977 -0.244063,0.545039 -0.54504,0.545039 z m 0,-1.803948 c -0.300978,0 -0.54504,-0.244061 -0.54504,-0.545037 0,-0.300978 0.244062,-0.54504 0.54504,-0.54504 h 1.16133 c 0.300977,0 0.54504,0.244062 0.54504,0.54504 0,0.300976 -0.244063,0.545037 -0.54504,0.545037 z"
       id="path1"
       style="fill:#333333;fill-opacity:1;stroke-width:0.0242605"
       inkscape:export-filename="contact.svg"
       inkscape:export-xdpi="96"
       inkscape:export-ydpi="96" />
  </g>
</svg>
