<?xml version="1.0" encoding="UTF-8" standalone="no"?>
<!-- Created with Inkscape (http://www.inkscape.org/) -->

<svg
   width="11.90648mm"
   height="11.90625mm"
   viewBox="0 0 11.90648 11.90625"
   version="1.1"
   id="svg1"
   inkscape:version="1.3 (0e150ed6c4, 2023-07-21)"
   sodipodi:docname="icons.svg"
   xmlns:inkscape="http://www.inkscape.org/namespaces/inkscape"
   xmlns:sodipodi="http://sodipodi.sourceforge.net/DTD/sodipodi-0.dtd"
   xmlns="http://www.w3.org/2000/svg"
   xmlns:svg="http://www.w3.org/2000/svg">
  <sodipodi:namedview
     id="namedview1"
     pagecolor="#ffffff"
     bordercolor="#000000"
     borderopacity="0.25"
     inkscape:showpageshadow="2"
     inkscape:pageopacity="0.0"
     inkscape:pagecheckerboard="0"
     inkscape:deskcolor="#d1d1d1"
     inkscape:document-units="mm"
     inkscape:zoom="2.9255612"
     inkscape:cx="120.3188"
     inkscape:cy="250.37931"
     inkscape:window-width="1920"
     inkscape:window-height="1017"
     inkscape:window-x="-8"
     inkscape:window-y="-8"
     inkscape:window-maximized="1"
     inkscape:current-layer="layer1" />
  <defs
     id="defs1" />
  <g
     inkscape:label="Layer 1"
     inkscape:groupmode="layer"
     id="layer1"
     transform="translate(-20.155663,-38.786109)">
    <path
       fill-rule="nonzero"
       d="m 26.108904,38.78611 c 1.643651,0 3.132424,0.666484 4.209594,1.743648 1.077161,1.077164 1.743646,2.56594 1.743646,4.209594 0,1.643652 -0.666485,3.132196 -1.743646,4.20936 -1.07717,1.077164 -2.565943,1.743648 -4.209594,1.743648 -1.643651,0 -3.132433,-0.666484 -4.209595,-1.743648 -1.07717,-1.077164 -1.743646,-2.565708 -1.743646,-4.20936 0,-1.643654 0.666476,-3.13243 1.743646,-4.209594 1.077162,-1.077164 2.565944,-1.743648 4.209595,-1.743648 z m -0.44557,3.173123 c 0,-0.245803 0.199766,-0.445562 0.44557,-0.445562 0.245803,0 0.44556,0.199759 0.44556,0.445562 v 1.454591 c 0,0.245804 -0.199757,0.445564 -0.44556,0.445564 -0.245804,0 -0.44557,-0.19976 -0.44557,-0.445564 z m 1.696215,1.219717 c -0.189987,-0.154644 -0.219055,-0.434632 -0.06464,-0.624857 0.154644,-0.189992 0.434873,-0.219061 0.624859,-0.06441 0.331616,0.268825 0.601841,0.609276 0.786012,0.996237 0.178373,0.374637 0.278368,0.793921 0.278368,1.235296 0,0.793922 -0.322088,1.512963 -0.842063,2.032941 l -0.02717,0.02511 c -0.518815,0.505562 -1.227158,0.816944 -2.005961,0.816944 -0.792061,0 -1.511334,-0.322313 -2.03201,-0.843222 -0.521134,-0.518814 -0.843222,-1.237855 -0.843222,-2.031777 0,-0.439283 0.09976,-0.857172 0.277667,-1.231807 0.184414,-0.388125 0.454171,-0.729274 0.783918,-0.997634 0.189995,-0.154644 0.470206,-0.125577 0.624626,0.06442 0.154644,0.190224 0.125576,0.470211 -0.06439,0.624857 -0.226973,0.184875 -0.413005,0.419982 -0.539983,0.687645 -0.122088,0.256734 -0.190687,0.546257 -0.190687,0.852522 0,0.547886 0.222542,1.043911 0.581132,1.402734 0.357663,0.359752 0.853926,0.581139 1.40297,0.581139 0.538589,0 1.026242,-0.21348 1.382261,-0.559279 l 0.02068,-0.02186 c 0.358581,-0.358823 0.581132,-0.854848 0.581132,-1.402734 0,-0.3058 -0.0688,-0.59509 -0.191389,-0.852522 a 1.9904057,1.9904057 0 0 0 -0.542068,-0.689739 z m 2.394554,-2.084796 c -0.932755,-0.932519 -2.221763,-1.509705 -3.645199,-1.509705 -1.423428,0 -2.712445,0.577186 -3.6452,1.509705 -0.932521,0.932752 -1.509698,2.221769 -1.509698,3.645198 0,1.423429 0.577177,2.712213 1.509698,3.644965 0.932755,0.932518 2.221772,1.509704 3.6452,1.509704 1.423436,0 2.712444,-0.577186 3.645199,-1.509704 0.932521,-0.932752 1.509706,-2.221536 1.509706,-3.644965 0,-1.423429 -0.577185,-2.712446 -1.509706,-3.645198 z"
       id="path1-4"
       style="fill:#333333;fill-opacity:1;stroke:none;stroke-width:0.0232548;stroke-opacity:1"
       inkscape:export-filename="get_started.png"
       inkscape:export-xdpi="200"
       inkscape:export-ydpi="200" />
  </g>
</svg>
