<?xml version="1.0" encoding="UTF-8" standalone="no"?>
<!-- Created with Inkscape (http://www.inkscape.org/) -->

<svg
   width="15.170234mm"
   height="11.906258mm"
   viewBox="0 0 15.170234 11.906258"
   version="1.1"
   id="svg1"
   inkscape:version="1.3 (0e150ed6c4, 2023-07-21)"
   sodipodi:docname="icons.svg"
   xmlns:inkscape="http://www.inkscape.org/namespaces/inkscape"
   xmlns:sodipodi="http://sodipodi.sourceforge.net/DTD/sodipodi-0.dtd"
   xmlns="http://www.w3.org/2000/svg"
   xmlns:svg="http://www.w3.org/2000/svg">
  <sodipodi:namedview
     id="namedview1"
     pagecolor="#ffffff"
     bordercolor="#000000"
     borderopacity="0.25"
     inkscape:showpageshadow="2"
     inkscape:pageopacity="0.0"
     inkscape:pagecheckerboard="0"
     inkscape:deskcolor="#d1d1d1"
     inkscape:document-units="mm"
     inkscape:zoom="2.0686842"
     inkscape:cx="212.21219"
     inkscape:cy="304.29971"
     inkscape:window-width="1920"
     inkscape:window-height="1017"
     inkscape:window-x="-8"
     inkscape:window-y="296"
     inkscape:window-maximized="1"
     inkscape:current-layer="layer1" />
  <defs
     id="defs1" />
  <g
     inkscape:label="Layer 1"
     inkscape:groupmode="layer"
     id="layer1"
     transform="translate(-19.471486,-60.491343)">
    <path
       d="m 20.95296,69.56676 q 0.02469,-4.288848 0.04815,-8.565355 a 0.39629251,0.39629251 0 0 1 0.322218,-0.386412 v 0 c 1.037026,-0.216044 2.671578,-0.161715 3.781446,0.264202 a 4.3777361,4.3777361 0 0 1 1.975288,1.438256 4.6098324,4.6098324 0 0 1 1.975287,-1.376528 c 1.048144,-0.399999 2.63825,-0.49629 3.777743,-0.32593 a 0.39505795,0.39505795 0 0 1 0.341974,0.38765 v 0 8.599918 a 0.39629251,0.39629251 0 0 1 -0.398759,0.395075 0.43086009,0.43086009 0 0 1 -0.09136,-0.01116 6.5987025,6.5987025 0 0 0 -2.895035,0.270364 8.7653485,8.7653485 0 0 0 -1.946893,1.019745 8.529548,8.529548 0 0 1 2.622199,-0.382708 15.483802,15.483802 0 0 1 3.383912,0.429621 V 62.32358 h 0.396297 a 0.39629251,0.39629251 0 0 1 0.396292,0.396296 v 9.122136 a 0.39629251,0.39629251 0 0 1 -0.396292,0.396286 0.39258883,0.39258883 0 0 1 -0.123458,-0.02094 15.03319,15.03319 0 0 0 -3.662925,-0.534567 7.6406678,7.6406678 0 0 0 -3.180219,0.649378 0.41851452,0.41851452 0 0 1 -0.449376,0 7.6369642,7.6369642 0 0 0 -3.180218,-0.649378 15.03319,15.03319 0 0 0 -3.654287,0.537033 0.39258883,0.39258883 0 0 1 -0.123454,0.02094 0.39629251,0.39629251 0 0 1 -0.399997,-0.398762 v -9.122136 a 0.39629251,0.39629251 0 0 1 0.396291,-0.396295 h 0.396292 v 8.999917 a 15.483802,15.483802 0 0 1 3.383919,-0.429621 8.4986841,8.4986841 0 0 1 2.803677,0.440724 6.0122882,6.0122882 0 0 0 -1.918496,-1.041951 c -0.864193,-0.283959 -2.182699,-0.379013 -3.146886,-0.2963 a 0.39629251,0.39629251 0 0 1 -0.43333,-0.361723 0.61727804,0.61727804 0 0 1 0,-0.06793 z m 7.609805,-1.124673 a 0.28394791,0.28394791 0 1 1 -0.30864,-0.475306 6.3530257,6.3530257 0 0 1 1.456776,-0.666659 6.6332699,6.6332699 0 0 1 1.60492,-0.329626 0.28313423,0.28313423 0 1 1 0.03084,0.565426 6.1011762,6.1011762 0 0 0 -1.455542,0.303699 5.7690806,5.7690806 0 0 0 -1.32838,0.602466 z m 0.02467,-2.192571 a 0.28306634,0.28306634 0 0 1 -0.303698,-0.47778 6.5073451,6.5073451 0 0 1 1.449369,-0.65431 6.6814179,6.6814179 0 0 1 1.577761,-0.323447 0.28394791,0.28394791 0 0 1 0.03084,0.566655 6.0863615,6.0863615 0 0 0 -1.435792,0.2963 5.9258693,5.9258693 0 0 0 -1.318506,0.592582 z m 0.0074,-2.18517 a 0.28410927,0.28410927 0 1 1 -0.303703,-0.480246 6.4863578,6.4863578 0 0 1 1.446902,-0.650598 6.6308011,6.6308011 0 0 1 1.572824,-0.320998 0.28313788,0.28313788 0 1 1 0.03084,0.565435 6.0925343,6.0925343 0 0 0 -1.430851,0.295062 5.9147583,5.9147583 0 0 0 -1.316035,0.591345 z m -2.735777,3.902435 a 0.28394791,0.28394791 0 1 1 -0.30864,0.475306 5.7690806,5.7690806 0 0 0 -1.323442,-0.602466 6.1011762,6.1011762 0 0 0 -1.455543,-0.303699 0.28320417,0.28320417 0 1 1 0.03333,-0.565426 6.6332699,6.6332699 0 0 1 1.604921,0.329626 6.3530257,6.3530257 0 0 1 1.456778,0.666659 z m -0.02963,-2.195045 a 0.28440008,0.28440008 0 0 1 -0.308642,0.47778 5.9258693,5.9258693 0 0 0 -1.318505,-0.592582 6.0863615,6.0863615 0 0 0 -1.435786,-0.2963 0.28397635,0.28397635 0 0 1 0.03826,-0.566655 6.6814179,6.6814179 0 0 1 1.577759,0.323447 6.5073451,6.5073451 0 0 1 1.44937,0.65431 z m -0.0074,-2.187636 a 0.28394791,0.28394791 0 1 1 -0.301235,0.480246 5.9147583,5.9147583 0 0 0 -1.316038,-0.591345 6.0925343,6.0925343 0 0 0 -1.430849,-0.295062 0.28313788,0.28313788 0 1 1 0.03084,-0.565435 6.6308011,6.6308011 0 0 1 1.572824,0.320998 6.4863578,6.4863578 0 0 1 1.4469,0.650598 z m 6.557959,-2.228362 c -0.916043,-0.08645 -2.229607,0.0148 -3.053054,0.327151 a 3.7036684,3.7036684 0 0 0 -1.867886,1.458012 v 7.439435 a 9.4764522,9.4764522 0 0 1 2.064177,-1.069125 7.759185,7.759185 0 0 1 2.856763,-0.354315 z m -5.713523,9.148054 V 63.129789 C 26.251654,62.397706 25.58129,61.908815 24.823273,61.618694 23.95908,61.28906 22.631934,61.215 21.791201,61.334743 l -0.04447,7.846842 c 0.917273,-0.03332 2.183929,0.08394 3.027129,0.359257 a 6.7826513,6.7826513 0 0 1 1.892577,0.96295 z"
       id="path1-46"
       style="fill:#333333;fill-opacity:1;stroke-width:0.123455"
       inkscape:export-filename="api_reference.svg"
       inkscape:export-xdpi="96"
       inkscape:export-ydpi="96" />
  </g>
</svg>
