<?xml version="1.0" encoding="UTF-8" standalone="no"?>
<!-- Created with Inkscape (http://www.inkscape.org/) -->

<svg
   width="210mm"
   height="297mm"
   viewBox="0 0 210 297"
   version="1.1"
   id="svg1"
   inkscape:version="1.3 (0e150ed6c4, 2023-07-21)"
   sodipodi:docname="icons.svg"
   xmlns:inkscape="http://www.inkscape.org/namespaces/inkscape"
   xmlns:sodipodi="http://sodipodi.sourceforge.net/DTD/sodipodi-0.dtd"
   xmlns="http://www.w3.org/2000/svg"
   xmlns:svg="http://www.w3.org/2000/svg">
  <sodipodi:namedview
     id="namedview1"
     pagecolor="#ffffff"
     bordercolor="#000000"
     borderopacity="0.25"
     inkscape:showpageshadow="2"
     inkscape:pageopacity="0.0"
     inkscape:pagecheckerboard="0"
     inkscape:deskcolor="#d1d1d1"
     inkscape:document-units="mm"
     inkscape:zoom="2.0686842"
     inkscape:cx="212.21219"
     inkscape:cy="304.29971"
     inkscape:window-width="1920"
     inkscape:window-height="1017"
     inkscape:window-x="-8"
     inkscape:window-y="296"
     inkscape:window-maximized="1"
     inkscape:current-layer="layer1" />
  <defs
     id="defs1" />
  <g
     inkscape:label="Layer 1"
     inkscape:groupmode="layer"
     id="layer1">
    <path
       fill-rule="nonzero"
       d="m 49.358372,61.783731 c 0,0.191052 -0.15488,0.345932 -0.345956,0.345932 -0.191053,0 -0.345956,-0.15488 -0.345956,-0.345932 0,-0.504913 0.206408,-0.963828 0.538755,-1.296269 0.332444,-0.332346 0.791381,-0.538755 1.296268,-0.538755 h 6.818858 c 0.504863,0 0.963728,0.206481 1.296099,0.538852 0.332492,0.332491 0.538927,0.791478 0.538927,1.296172 v 0.149033 l 0.594069,-2.5e-5 c 0.04912,0 0.09505,0.0105 0.139279,0.03128 0.04996,0.02346 0.08892,0.05579 0.119607,0.09694 l -6.9e-4,5.18e-4 c 0.02385,0.03192 0.0417,0.06528 0.05318,0.101675 l -8.62e-4,3.45e-4 c 0.01154,0.03654 0.01757,0.07227 0.01757,0.108348 v 1.540014 c 0,0.03326 -0.0061,0.06669 -0.01849,0.09906 a 0.27154904,0.27154904 0 0 1 -0.01739,0.03873 0.29219483,0.29219483 0 0 1 -0.07735,0.09042 0.30798849,0.30798849 0 0 1 -0.05408,0.03523 l -1.72e-4,-3.46e-4 -8.61e-4,3.46e-4 c -0.04205,0.02101 -0.08472,0.03164 -0.128485,0.03164 h -0.625317 v 0.67954 h -0.115312 l 0.709309,7.2e-5 c 0.04971,0 0.0959,0.01041 0.140275,0.03125 l -1.73e-4,3.45e-4 c 0.04938,0.02337 0.08816,0.05548 0.118852,0.09641 l -6.9e-4,6.89e-4 c 0.02096,0.02795 0.037,0.05679 0.04816,0.08646 0.01439,0.0384 0.02162,0.07661 0.02162,0.114654 v 1.54909 c 0,0.04465 -0.0105,0.08768 -0.03169,0.129528 a 0.30810979,0.30810979 0 0 1 -0.0567,0.07906 l -5.17e-4,-5.17e-4 c -0.02482,0.02482 -0.05136,0.0442 -0.07955,0.05815 l -5.18e-4,-8.63e-4 c -0.04197,0.02098 -0.08457,0.03139 -0.12795,0.03139 l -0.625146,-4.7e-5 v 0.735046 h 0.593901 c 0.03974,0 0.07739,0.0066 0.11458,0.01963 0.04805,0.01691 0.08719,0.04161 0.119678,0.07409 l -3.44e-4,1.73e-4 c 0.0336,0.03301 0.05844,0.07295 0.07435,0.118876 l -3.46e-4,-4.8e-5 3.46e-4,8.62e-4 c 0.01315,0.0378 0.01977,0.07634 0.01977,0.11448 v 1.537861 c 0,0.02657 -0.0036,0.05339 -0.01079,0.08048 a 0.2930682,0.2930682 0 0 1 -0.07749,0.13802 0.30556242,0.30556242 0 0 1 -0.07907,0.05781 c -0.04175,0.02112 -0.08488,0.0315 -0.129478,0.0315 l -0.74046,5.2e-5 h 0.115263 v 0.148958 c 0,0.504665 -0.206579,0.963508 -0.539023,1.295996 -0.332492,0.332471 -0.791404,0.539029 -1.296002,0.539029 h -6.818858 c -0.504669,0 -0.96363,-0.206463 -1.296123,-0.538951 -0.332394,-0.332393 -0.538901,-0.791193 -0.538901,-1.296074 0,-0.191076 0.154904,-0.345962 0.345957,-0.345962 0.191077,0 0.345957,0.154886 0.345957,0.345962 0,0.313857 0.128824,0.599597 0.336155,0.806908 0.207402,0.207424 0.493216,0.336201 0.806955,0.336201 h 6.818858 c 0.313666,0 0.599432,-0.128873 0.806835,-0.336279 0.207429,-0.207406 0.336278,-0.493164 0.336278,-0.80683 v -8.236088 c 0,-0.313763 -0.128777,-0.5996 -0.33618,-0.807006 -0.207283,-0.207283 -0.493,-0.336105 -0.806933,-0.336105 h -6.818858 c -0.313955,0 -0.599771,0.128677 -0.807102,0.336009 -0.207307,0.207306 -0.336008,0.49312 -0.336008,0.807102 z m 7.428236,3.813695 c 0,0.159804 -0.01257,0.314078 -0.03753,0.462432 -0.02499,0.148838 -0.0625,0.29069 -0.112231,0.425241 l -0.0022,0.0055 c -0.05037,0.134185 -0.111381,0.253959 -0.182634,0.35908 -0.07342,0.1083 -0.157694,0.201097 -0.252167,0.27805 -0.09571,0.07788 -0.198911,0.136224 -0.309225,0.175113 -0.111089,0.03914 -0.228802,0.05866 -0.35287,0.05866 -0.104006,0 -0.200829,-0.01623 -0.290667,-0.04843 -0.09047,-0.03241 -0.172177,-0.08061 -0.245226,-0.144204 l -0.0057,-0.0055 c -0.0704,-0.06344 -0.126616,-0.135447 -0.168806,-0.215724 l -0.0023,-0.0048 a 0.76583479,0.76583479 0 0 1 -0.03539,-0.07904 1.1341109,1.1341109 0 0 1 -0.0829,0.111695 1.0936686,1.0936686 0 0 1 -0.236784,0.210194 c -0.08894,0.05857 -0.186831,0.10255 -0.293116,0.131952 -0.10534,0.02909 -0.217837,0.04377 -0.337077,0.04377 -0.176764,0 -0.335404,-0.03071 -0.475824,-0.092 -0.14156,-0.06181 -0.263423,-0.154493 -0.365266,-0.277979 -0.100538,-0.121885 -0.175672,-0.264974 -0.225237,-0.428828 -0.04883,-0.161578 -0.07322,-0.34358 -0.07322,-0.545939 0,-0.233896 0.03418,-0.447098 0.10238,-0.639145 0.06883,-0.193648 0.172079,-0.365096 0.309614,-0.514009 l 3.44e-4,-3.45e-4 c 0.138625,-0.149445 0.299352,-0.261627 0.481962,-0.336494 0.181832,-0.07453 0.3839,-0.111795 0.606102,-0.111795 0.07672,0 0.15949,0.0036 0.24792,0.01083 0.08573,0.007 0.176955,0.01769 0.273053,0.03198 l 0.0025,5.18e-4 c 0.09345,0.01339 0.184019,0.02998 0.271308,0.0494 0.0885,0.01965 0.172395,0.04221 0.25151,0.06737 a 0.08614944,0.08614944 0 0 1 0.05999,0.08651 l -0.08198,1.546977 1.72e-4,0.07217 c 0,0.177077 0.03086,0.306992 0.09248,0.389625 l 0.0029,0.0043 c 0.05572,0.072 0.141365,0.108081 0.256604,0.108081 0.08186,0 0.156019,-0.02414 0.222396,-0.0723 0.07077,-0.05133 0.134403,-0.130278 0.190543,-0.236565 0.05881,-0.111308 0.103253,-0.239839 0.132972,-0.385404 0.03004,-0.147165 0.0452,-0.313179 0.0452,-0.497754 0,-0.193381 -0.01953,-0.373712 -0.05866,-0.54128 -0.03905,-0.167326 -0.0975,-0.322254 -0.175209,-0.464881 l -1.73e-4,-5.17e-4 c -0.07725,-0.142363 -0.170845,-0.268155 -0.280698,-0.377279 -0.109899,-0.109196 -0.236687,-0.202431 -0.379921,-0.279651 -0.143089,-0.07693 -0.297291,-0.134891 -0.462431,-0.173609 -0.165603,-0.03882 -0.342925,-0.05829 -0.531696,-0.05829 -0.239162,0 -0.462311,0.02458 -0.669205,0.07383 -0.205828,0.04898 -0.39603,0.122469 -0.57044,0.22048 -0.174167,0.09794 -0.327614,0.216429 -0.460004,0.355321 -0.1329,0.139376 -0.245373,0.299764 -0.337249,0.480846 -0.09233,0.182002 -0.161818,0.378731 -0.20818,0.590066 -0.04651,0.212062 -0.06983,0.439093 -0.06983,0.68119 0,0.326547 0.04268,0.614328 0.128121,0.863387 0.08448,0.246172 0.210825,0.455007 0.378999,0.626335 0.167665,0.170843 0.372933,0.299231 0.615808,0.384992 0.245687,0.08673 0.5307,0.130183 0.854872,0.130183 0.451853,0 0.921925,-0.09282 1.409055,-0.278366 a 0.08644057,0.08644057 0 0 1 0.117155,0.08077 l 7.2e-5,0.439699 a 0.08648909,0.08648909 0 0 1 -0.05846,0.08186 c -0.215628,0.0937 -0.445109,0.164076 -0.688565,0.210971 -0.245712,0.04725 -0.50547,0.07096 -0.77925,0.07096 -0.409229,0 -0.77372,-0.05677 -1.093427,-0.16997 -0.322253,-0.114196 -0.598558,-0.285862 -0.828767,-0.514928 -0.230038,-0.228245 -0.402266,-0.502294 -0.516872,-0.821709 -0.113855,-0.317134 -0.170624,-0.677817 -0.170624,-1.081708 0,-0.29222 0.03016,-0.569298 0.09047,-0.831144 0.06045,-0.262184 0.151313,-0.508552 0.272567,-0.738929 0.121668,-0.230526 0.269513,-0.435429 0.443265,-0.614475 0.173854,-0.179066 0.373542,-0.332223 0.598826,-0.459083 l 0.0064,-0.0033 c 0.222883,-0.125088 0.461875,-0.219049 0.716587,-0.281665 0.257428,-0.06324 0.530482,-0.09498 0.818675,-0.09498 0.242971,0 0.473179,0.02564 0.69048,0.07693 0.21791,0.05146 0.422645,0.128945 0.614328,0.232368 0.191635,0.103737 0.361944,0.229481 0.510443,0.377009 0.148088,0.147069 0.274438,0.315947 0.378757,0.506489 0.104782,0.189936 0.183144,0.394308 0.23523,0.612605 0.05194,0.218175 0.07793,0.450325 0.07793,0.696183 z m -3.415021,0.432882 c 0,0.260293 0.04765,0.452559 0.142896,0.576723 0.08979,0.117034 0.227854,0.175599 0.414346,0.175599 0.19896,0 0.351586,-0.07421 0.457969,-0.222446 0.11383,-0.158591 0.180062,-0.40195 0.198864,-0.729686 l 0.04345,-0.790533 a 1.7360895,1.7360895 0 0 0 -0.169485,-0.0304 c -0.08093,-0.01041 -0.167325,-0.01572 -0.259055,-0.01572 -0.131226,0 -0.247337,0.02237 -0.348261,0.06698 -0.09937,0.04393 -0.185447,0.110313 -0.257914,0.198912 l -0.0038,0.0042 c -0.07139,0.08877 -0.125574,0.195638 -0.162087,0.320072 -0.03792,0.129139 -0.05696,0.278123 -0.05696,0.446225 z m -5.170494,3.122434 c -0.300978,0 -0.54504,-0.244055 -0.54504,-0.545035 0,-0.30098 0.244062,-0.545035 0.54504,-0.545035 h 1.16133 c 0.300977,0 0.54504,0.244055 0.54504,0.545035 0,0.30098 -0.244063,0.545035 -0.54504,0.545035 z m 0,-1.803942 c -0.300978,0 -0.54504,-0.244063 -0.54504,-0.545039 0,-0.300978 0.244062,-0.545039 0.54504,-0.545039 h 1.16133 c 0.300977,0 0.54504,0.244061 0.54504,0.545039 0,0.300976 -0.244063,0.545039 -0.54504,0.545039 z m 0,-1.803946 c -0.300978,0 -0.54504,-0.244062 -0.54504,-0.545039 0,-0.300978 0.244062,-0.54504 0.54504,-0.54504 h 1.16133 c 0.300977,0 0.54504,0.244062 0.54504,0.54504 0,0.300977 -0.244063,0.545039 -0.54504,0.545039 z m 0,-1.803948 c -0.300978,0 -0.54504,-0.244061 -0.54504,-0.545037 0,-0.300978 0.244062,-0.54504 0.54504,-0.54504 h 1.16133 c 0.300977,0 0.54504,0.244062 0.54504,0.54504 0,0.300976 -0.244063,0.545037 -0.54504,0.545037 z"
       id="path1"
       style="fill:#333333;fill-opacity:1;stroke-width:0.0242605"
       inkscape:export-filename="contact.svg"
       inkscape:export-xdpi="96"
       inkscape:export-ydpi="96" />
    <path
       d="m 20.95296,69.56676 q 0.02469,-4.288848 0.04815,-8.565355 a 0.39629251,0.39629251 0 0 1 0.322218,-0.386412 v 0 c 1.037026,-0.216044 2.671578,-0.161715 3.781446,0.264202 a 4.3777361,4.3777361 0 0 1 1.975288,1.438256 4.6098324,4.6098324 0 0 1 1.975287,-1.376528 c 1.048144,-0.399999 2.63825,-0.49629 3.777743,-0.32593 a 0.39505795,0.39505795 0 0 1 0.341974,0.38765 v 0 8.599918 a 0.39629251,0.39629251 0 0 1 -0.398759,0.395075 0.43086009,0.43086009 0 0 1 -0.09136,-0.01116 6.5987025,6.5987025 0 0 0 -2.895035,0.270364 8.7653485,8.7653485 0 0 0 -1.946893,1.019745 8.529548,8.529548 0 0 1 2.622199,-0.382708 15.483802,15.483802 0 0 1 3.383912,0.429621 V 62.32358 h 0.396297 a 0.39629251,0.39629251 0 0 1 0.396292,0.396296 v 9.122136 a 0.39629251,0.39629251 0 0 1 -0.396292,0.396286 0.39258883,0.39258883 0 0 1 -0.123458,-0.02094 15.03319,15.03319 0 0 0 -3.662925,-0.534567 7.6406678,7.6406678 0 0 0 -3.180219,0.649378 0.41851452,0.41851452 0 0 1 -0.449376,0 7.6369642,7.6369642 0 0 0 -3.180218,-0.649378 15.03319,15.03319 0 0 0 -3.654287,0.537033 0.39258883,0.39258883 0 0 1 -0.123454,0.02094 0.39629251,0.39629251 0 0 1 -0.399997,-0.398762 v -9.122136 a 0.39629251,0.39629251 0 0 1 0.396291,-0.396295 h 0.396292 v 8.999917 a 15.483802,15.483802 0 0 1 3.383919,-0.429621 8.4986841,8.4986841 0 0 1 2.803677,0.440724 6.0122882,6.0122882 0 0 0 -1.918496,-1.041951 c -0.864193,-0.283959 -2.182699,-0.379013 -3.146886,-0.2963 a 0.39629251,0.39629251 0 0 1 -0.43333,-0.361723 0.61727804,0.61727804 0 0 1 0,-0.06793 z m 7.609805,-1.124673 a 0.28394791,0.28394791 0 1 1 -0.30864,-0.475306 6.3530257,6.3530257 0 0 1 1.456776,-0.666659 6.6332699,6.6332699 0 0 1 1.60492,-0.329626 0.28313423,0.28313423 0 1 1 0.03084,0.565426 6.1011762,6.1011762 0 0 0 -1.455542,0.303699 5.7690806,5.7690806 0 0 0 -1.32838,0.602466 z m 0.02467,-2.192571 a 0.28306634,0.28306634 0 0 1 -0.303698,-0.47778 6.5073451,6.5073451 0 0 1 1.449369,-0.65431 6.6814179,6.6814179 0 0 1 1.577761,-0.323447 0.28394791,0.28394791 0 0 1 0.03084,0.566655 6.0863615,6.0863615 0 0 0 -1.435792,0.2963 5.9258693,5.9258693 0 0 0 -1.318506,0.592582 z m 0.0074,-2.18517 a 0.28410927,0.28410927 0 1 1 -0.303703,-0.480246 6.4863578,6.4863578 0 0 1 1.446902,-0.650598 6.6308011,6.6308011 0 0 1 1.572824,-0.320998 0.28313788,0.28313788 0 1 1 0.03084,0.565435 6.0925343,6.0925343 0 0 0 -1.430851,0.295062 5.9147583,5.9147583 0 0 0 -1.316035,0.591345 z m -2.735777,3.902435 a 0.28394791,0.28394791 0 1 1 -0.30864,0.475306 5.7690806,5.7690806 0 0 0 -1.323442,-0.602466 6.1011762,6.1011762 0 0 0 -1.455543,-0.303699 0.28320417,0.28320417 0 1 1 0.03333,-0.565426 6.6332699,6.6332699 0 0 1 1.604921,0.329626 6.3530257,6.3530257 0 0 1 1.456778,0.666659 z m -0.02963,-2.195045 a 0.28440008,0.28440008 0 0 1 -0.308642,0.47778 5.9258693,5.9258693 0 0 0 -1.318505,-0.592582 6.0863615,6.0863615 0 0 0 -1.435786,-0.2963 0.28397635,0.28397635 0 0 1 0.03826,-0.566655 6.6814179,6.6814179 0 0 1 1.577759,0.323447 6.5073451,6.5073451 0 0 1 1.44937,0.65431 z m -0.0074,-2.187636 a 0.28394791,0.28394791 0 1 1 -0.301235,0.480246 5.9147583,5.9147583 0 0 0 -1.316038,-0.591345 6.0925343,6.0925343 0 0 0 -1.430849,-0.295062 0.28313788,0.28313788 0 1 1 0.03084,-0.565435 6.6308011,6.6308011 0 0 1 1.572824,0.320998 6.4863578,6.4863578 0 0 1 1.4469,0.650598 z m 6.557959,-2.228362 c -0.916043,-0.08645 -2.229607,0.0148 -3.053054,0.327151 a 3.7036684,3.7036684 0 0 0 -1.867886,1.458012 v 7.439435 a 9.4764522,9.4764522 0 0 1 2.064177,-1.069125 7.759185,7.759185 0 0 1 2.856763,-0.354315 z m -5.713523,9.148054 V 63.129789 C 26.251654,62.397706 25.58129,61.908815 24.823273,61.618694 23.95908,61.28906 22.631934,61.215 21.791201,61.334743 l -0.04447,7.846842 c 0.917273,-0.03332 2.183929,0.08394 3.027129,0.359257 a 6.7826513,6.7826513 0 0 1 1.892577,0.96295 z"
       id="path1-46"
       style="fill:#333333;fill-opacity:1;stroke-width:0.123455"
       inkscape:export-filename="user_guide.svg"
       inkscape:export-xdpi="96"
       inkscape:export-ydpi="96" />
    <path
       fill-rule="nonzero"
       d="m 47.750643,40.106315 c -0.144452,0 -0.260909,-0.116403 -0.260909,-0.260897 0,-0.144451 0.116457,-0.260906 0.260909,-0.260906 h 5.538043 v -0.537501 c 0,-0.144451 0.116457,-0.260906 0.260909,-0.260906 0.14445,0 0.260907,0.116403 0.260907,0.260906 v 0.537501 h 6.599218 c 0.144453,0 0.260908,0.116403 0.260908,0.260906 0,0.144442 -0.116457,0.260897 -0.260908,0.260897 h -0.600574 v 7.498033 h 0.62857 c 0.144449,0 0.260906,0.116403 0.260906,0.260906 0,0.144459 -0.116457,0.260914 -0.260906,0.260914 h -6.730233 v 0.265017 c 0.01417,0.0097 0.02351,0.01861 0.03248,0.02804 l 1.597549,1.51841 c 0.102275,0.09779 0.107123,0.265388 0.0093,0.367669 -0.09779,0.102652 -0.265389,0.107091 -0.368034,0.0097 l -1.266467,-1.206005 v 1.322469 c 0,0.144442 -0.116457,0.260897 -0.260909,0.260897 -0.14445,0 -0.260907,-0.116395 -0.260907,-0.260897 v -1.373596 l -1.322457,1.257132 c -0.102649,0.09779 -0.270239,0.09779 -0.368034,-0.0097 -0.09779,-0.102237 -0.09779,-0.269863 0.0093,-0.367669 l 1.597563,-1.51841 c 0.02314,-0.02319 0.05562,-0.0418 0.0836,-0.05599 V 48.12622 h -5.516394 c -0.144451,0 -0.260908,-0.116395 -0.260908,-0.260914 0,-0.144442 0.116457,-0.260906 0.260908,-0.260906 h 11.613205 v -7.498024 z m 5.098343,6.39468 a 0.23888573,0.23888573 0 0 1 -0.238885,-0.23889 c 0,-0.131824 0.107122,-0.238509 0.238885,-0.238509 h 5.090133 c 0.131764,0 0.238512,0.106814 0.238512,0.238509 0,0.132093 -0.106748,0.23889 -0.238512,0.23889 z m 0.360568,-1.604637 c -0.131765,0 -0.238512,-0.106814 -0.238512,-0.238526 0,-0.132093 0.106747,-0.238873 0.238512,-0.238873 h 4.729565 c 0.131764,0 0.238512,0.106823 0.238512,0.238873 0,0.131824 -0.106748,0.238526 -0.238512,0.238526 z m -0.77563,-1.604645 c -0.131765,0 -0.238514,-0.106815 -0.238514,-0.23851 0,-0.131816 0.106748,-0.23889 0.238514,-0.23889 h 5.505195 c 0.131764,0 0.238512,0.1071 0.238512,0.23889 0,0.131816 -0.106748,0.23851 -0.238512,0.23851 z M 49.979,41.687067 c -0.131765,0 -0.238513,-0.106815 -0.238513,-0.238509 0,-0.131816 0.106748,-0.238891 0.238513,-0.238891 h 7.960119 c 0.131764,0 0.238512,0.107101 0.238512,0.238891 0,0.131824 -0.106748,0.238509 -0.238512,0.238509 z m -0.172445,3.154789 1.809932,-1.897648 c 0.106372,-0.111956 0.283301,-0.116127 0.394907,-0.0097 0.111985,0.1064 0.116083,0.283294 0.01,0.394903 l -1.705048,1.787917 c 0.139972,0.169452 0.206412,0.397516 0.161993,0.630055 -0.07913,0.413949 -0.47889,0.685309 -0.89246,0.606178 l -1.892798,-0.36393 c -0.188867,-0.03289 -0.365793,-0.13668 -0.487101,-0.30421 l -0.614007,-0.848411 -0.0016,0.0765 v -0.0553 l -0.04889,2.830797 0.07427,0.424014 h -3.174564 l 0.06569,-0.39267 -0.05823,-2.8084 v 0.0017 l -0.0097,-0.481502 -0.0034,0.0043 c -0.324735,0.325109 -0.338547,1.099994 -0.374753,1.57067 l -0.0825,1.077979 c -0.01903,0.24597 -0.03956,0.384812 -0.232168,0.551296 -0.279944,0.241123 -0.75137,0.290761 -1.000334,-0.01419 -0.160874,-0.196339 -0.168713,-0.509869 -0.15229,-0.796165 0.08287,-1.4322 0.251204,-3.58776 1.855097,-4.296946 v 0.01791 c 0.680078,-0.270235 1.481465,-0.152655 2.213053,-0.152655 0.348251,0 0.654322,0.05115 0.926055,0.155268 0.173564,0.03998 0.333695,0.140349 0.446417,0.296006 l 1.230262,1.700929 z m -4.793393,-5.938915 c 0.891715,0 1.614344,0.722634 1.614344,1.614338 0,0.891341 -0.722629,1.613975 -1.614344,1.613975 -0.891717,0 -1.614347,-0.722634 -1.614347,-1.613975 0,-0.891704 0.72263,-1.614338 1.614347,-1.614338 z"
       id="path1-42"
       style="fill:#333333;fill-opacity:1;stroke-width:0.0373258"
       inkscape:export-filename="examples.svg"
       inkscape:export-xdpi="96"
       inkscape:export-ydpi="96" />
    <path
       fill-rule="nonzero"
       d="m 26.108904,38.78611 c 1.643651,0 3.132424,0.666484 4.209594,1.743648 1.077161,1.077164 1.743646,2.56594 1.743646,4.209594 0,1.643652 -0.666485,3.132196 -1.743646,4.20936 -1.07717,1.077164 -2.565943,1.743648 -4.209594,1.743648 -1.643651,0 -3.132433,-0.666484 -4.209595,-1.743648 -1.07717,-1.077164 -1.743646,-2.565708 -1.743646,-4.20936 0,-1.643654 0.666476,-3.13243 1.743646,-4.209594 1.077162,-1.077164 2.565944,-1.743648 4.209595,-1.743648 z m -0.44557,3.173123 c 0,-0.245803 0.199766,-0.445562 0.44557,-0.445562 0.245803,0 0.44556,0.199759 0.44556,0.445562 v 1.454591 c 0,0.245804 -0.199757,0.445564 -0.44556,0.445564 -0.245804,0 -0.44557,-0.19976 -0.44557,-0.445564 z m 1.696215,1.219717 c -0.189987,-0.154644 -0.219055,-0.434632 -0.06464,-0.624857 0.154644,-0.189992 0.434873,-0.219061 0.624859,-0.06441 0.331616,0.268825 0.601841,0.609276 0.786012,0.996237 0.178373,0.374637 0.278368,0.793921 0.278368,1.235296 0,0.793922 -0.322088,1.512963 -0.842063,2.032941 l -0.02717,0.02511 c -0.518815,0.505562 -1.227158,0.816944 -2.005961,0.816944 -0.792061,0 -1.511334,-0.322313 -2.03201,-0.843222 -0.521134,-0.518814 -0.843222,-1.237855 -0.843222,-2.031777 0,-0.439283 0.09976,-0.857172 0.277667,-1.231807 0.184414,-0.388125 0.454171,-0.729274 0.783918,-0.997634 0.189995,-0.154644 0.470206,-0.125577 0.624626,0.06442 0.154644,0.190224 0.125576,0.470211 -0.06439,0.624857 -0.226973,0.184875 -0.413005,0.419982 -0.539983,0.687645 -0.122088,0.256734 -0.190687,0.546257 -0.190687,0.852522 0,0.547886 0.222542,1.043911 0.581132,1.402734 0.357663,0.359752 0.853926,0.581139 1.40297,0.581139 0.538589,0 1.026242,-0.21348 1.382261,-0.559279 l 0.02068,-0.02186 c 0.358581,-0.358823 0.581132,-0.854848 0.581132,-1.402734 0,-0.3058 -0.0688,-0.59509 -0.191389,-0.852522 a 1.9904057,1.9904057 0 0 0 -0.542068,-0.689739 z m 2.394554,-2.084796 c -0.932755,-0.932519 -2.221763,-1.509705 -3.645199,-1.509705 -1.423428,0 -2.712445,0.577186 -3.6452,1.509705 -0.932521,0.932752 -1.509698,2.221769 -1.509698,3.645198 0,1.423429 0.577177,2.712213 1.509698,3.644965 0.932755,0.932518 2.221772,1.509704 3.6452,1.509704 1.423436,0 2.712444,-0.577186 3.645199,-1.509704 0.932521,-0.932752 1.509706,-2.221536 1.509706,-3.644965 0,-1.423429 -0.577185,-2.712446 -1.509706,-3.645198 z"
       id="path1-4"
       style="fill:#333333;fill-opacity:1;stroke-width:0.0232548;stroke:none;stroke-opacity:1"
       inkscape:export-filename="get_started.svg"
       inkscape:export-xdpi="200"
       inkscape:export-ydpi="200" />
    <g
       id="g1"
       transform="translate(-3.9648795,-8.98372)"
       inkscape:export-filename="api_reference.svg"
       inkscape:export-xdpi="96"
       inkscape:export-ydpi="96">
      <path
         d="m 87.872964,54.40217 c -0.159809,0 -0.279676,-0.119869 -0.279676,-0.319631 v -5.154048 c 0,-0.279676 -0.199773,-0.5194 -0.479447,-0.5194 h -6.95197 c -0.279679,0 -0.479448,0.239724 -0.479448,0.5194 v 3.835571 c 0,0.159809 -0.119868,0.31963 -0.279676,0.31963 -0.159809,0 -0.279678,-0.119868 -0.279678,-0.31963 v -3.835571 c 0,-0.639261 0.479447,-1.158661 1.038802,-1.158661 h 6.95197 c 0.559354,0 1.038802,0.5194 1.038802,1.158661 v 5.154048 c 0,0.15981 -0.15981,0.319631 -0.279679,0.319631 z"
         id="path1-3"
         style="overflow:hidden;fill:#333333;fill-opacity:1;stroke-width:0.015607" />
      <path
         d="m 80.920994,49.927338 h 5.433724 c 0.15981,0 0.279678,-0.15981 0.279678,-0.319631 0,-0.15981 -0.119868,-0.319631 -0.279678,-0.319631 h -5.433724 c -0.15981,0 -0.279679,0.15981 -0.279679,0.319631 0,0.15981 0.119869,0.319631 0.279679,0.319631 z m 0,1.917786 h 5.433724 c 0.15981,0 0.279678,-0.159809 0.279678,-0.31963 0,-0.15981 -0.119868,-0.319631 -0.279678,-0.319631 h -5.433724 c -0.15981,0 -0.279679,0.15981 -0.279679,0.319631 0,0.159809 0.119869,0.31963 0.279679,0.31963 z m 3.635802,1.87783 h 1.917784 c 0.0799,0 0.119868,-0.15981 0.119868,-0.319631 0,-0.15981 -0.0799,-0.319631 -0.119868,-0.319631 h -1.917784 c -0.07991,0 -0.119869,0.15981 -0.119869,0.319631 0,0.15981 0.03994,0.319631 0.119869,0.319631 z m -4.195157,3.795618 h 0.998847 l -0.519399,-1.398387 z m 4.315018,-1.558201 h -0.439492 v 1.038802 h 0.439492 c 0.15981,0 0.279676,0 0.399538,-0.03996 0.119869,-0.03996 0.199774,-0.07991 0.239724,-0.15981 0.03994,-0.07991 0.07991,-0.15981 0.07991,-0.319631 0,-0.159809 -0.03996,-0.279676 -0.119869,-0.359585 -0.119869,-0.0799 -0.319631,-0.15981 -0.599307,-0.15981 z"
         id="path2"
         style="overflow:hidden;fill:#333333;fill-opacity:1;stroke-width:0.015607" />
      <path
         d="M 88.632088,54.522032 H 84.157255 L 83.517994,53.603094 C 83.398125,53.403321 83.198363,53.323416 82.95864,53.323416 h -4.315016 c -0.359585,0 -0.679216,0.319631 -0.679216,0.679216 v 4.994232 c 0,0.359585 0.319631,0.679216 0.679216,0.679216 h 9.988464 c 0.359585,0 0.679216,-0.319631 0.679216,-0.679216 v -3.795616 c 0,-0.39954 -0.279676,-0.679216 -0.679216,-0.679216 z m -6.31271,4.275063 c -0.0799,0.07991 -0.159809,0.07991 -0.239723,0.07991 -0.03996,0 -0.0799,0 -0.119869,-0.03994 -0.03994,-0.03996 -0.0799,-0.03996 -0.0799,-0.07991 -0.03996,-0.03994 -0.03996,-0.0799 -0.0799,-0.15981 -0.03996,-0.0799 -0.03996,-0.119868 -0.0799,-0.199773 l -0.15981,-0.439493 h -1.35843 l -0.15981,0.439493 c -0.0799,0.159809 -0.119868,0.279676 -0.159809,0.359583 -0.03996,0.07991 -0.119869,0.07991 -0.199774,0.07991 -0.0799,0 -0.159809,-0.03996 -0.239723,-0.07991 -0.07991,-0.0799 -0.07991,-0.119869 -0.07991,-0.199774 0,-0.03996 0,-0.0799 0.03996,-0.159809 0,-0.03996 0.03996,-0.119869 0.0799,-0.199774 l 0.878985,-2.197462 c 0.03996,-0.0799 0.03996,-0.119869 0.0799,-0.239724 0.03996,-0.0799 0.0799,-0.159809 0.119869,-0.199773 0.03996,-0.03996 0.07991,-0.119869 0.15981,-0.15981 0.0799,-0.03996 0.159809,-0.03996 0.239723,-0.03996 0.0799,0 0.15981,0 0.239721,0.03996 0.0799,0.03996 0.119869,0.07991 0.15981,0.119869 0.03996,0.03996 0.0799,0.119868 0.0799,0.199773 0.03996,0.07991 0.07991,0.15981 0.119869,0.279678 l 0.878985,2.157508 c 0.0799,0.15981 0.119868,0.279676 0.119868,0.359583 -0.119868,0.119869 -0.15981,0.199774 -0.239723,0.279679 z m 3.436033,-1.558201 c -0.199773,0.15981 -0.519402,0.279678 -0.958894,0.279678 h -0.639262 v 0.958892 c 0,0.119869 -0.03996,0.239724 -0.0799,0.319631 -0.0799,0.07991 -0.15981,0.119869 -0.239724,0.119869 -0.119869,0 -0.199773,-0.03996 -0.239724,-0.119869 -0.0799,-0.0799 -0.0799,-0.15981 -0.0799,-0.319631 v -2.597 c 0,-0.15981 0.03996,-0.239724 0.119868,-0.319631 0.0799,-0.07991 0.15981,-0.07991 0.319631,-0.07991 h 0.878985 c 0.239724,0 0.439492,0 0.599309,0.03996 0.119869,0.03996 0.239721,0.119869 0.359583,0.199774 0.119869,0.0799 0.15981,0.199773 0.239724,0.31963 0.03996,0.119869 0.0799,0.279679 0.0799,0.439493 -0.03996,0.359585 -0.119868,0.599309 -0.359583,0.759123 z m 2.197463,1.23857 c 0,0.119869 -0.03996,0.239724 -0.0799,0.319631 -0.0799,0.07991 -0.15981,0.119869 -0.239724,0.119869 -0.0799,0 -0.159809,-0.03996 -0.239721,-0.119869 -0.0799,-0.0799 -0.0799,-0.15981 -0.0799,-0.319631 v -2.636955 c 0,-0.119868 0.03996,-0.239723 0.0799,-0.31963 0.0799,-0.07991 0.15981,-0.119869 0.239721,-0.119869 0.119869,0 0.199774,0.03996 0.239724,0.119869 0.0799,0.0799 0.0799,0.159809 0.0799,0.31963 z"
         id="path3"
         style="overflow:hidden;fill:#333333;fill-opacity:1;stroke-width:0.015607" />
    </g>
    <g
       id="g8"
       transform="matrix(0.03069048,0,0,0.03069048,73.229042,59.457909)"
       style="fill:#333333;fill-opacity:1"
       inkscape:export-filename="develoers_guide.svg"
       inkscape:export-xdpi="96"
       inkscape:export-ydpi="96">&#10;	<g
   id="g7"
   style="fill:#333333;fill-opacity:1">&#10;		<g
   id="g6"
   style="fill:#333333;fill-opacity:1">&#10;			<path
   d="m 282.895,352.367 c -2.176,-1.324 -4.072,-3.099 -5.579,-5.25 -0.696,-0.992 -1.284,-2.041 -1.771,-3.125 H 28.282 V 100.276 h 335.624 v 159.138 c 7.165,0.647 13.177,5.353 15.701,11.797 2.235,-1.225 4.726,-1.982 7.344,-2.213 1.771,-0.154 3.53,-0.044 5.236,0.293 V 39.561 c 0,-12.996 -10.571,-23.569 -23.566,-23.569 H 23.568 C 10.573,15.992 0,26.565 0,39.561 v 309.146 c 0,12.996 10.573,23.568 23.568,23.568 h 257.179 c -2.007,-4.064 -2.483,-8.652 -1.302,-13.066 0.681,-2.539 1.859,-4.855 3.45,-6.842 z m 55.13,-296.798 c 0,-4.806 3.896,-8.703 8.702,-8.703 h 8.702 c 4.807,0 8.702,3.896 8.702,8.703 v 9.863 c 0,4.806 -3.896,8.702 -8.702,8.702 h -8.702 c -4.807,0 -8.702,-3.896 -8.702,-8.702 z m -40.465,0 c 0,-4.806 3.896,-8.703 8.702,-8.703 h 8.703 c 4.807,0 8.702,3.896 8.702,8.703 v 9.863 c 0,4.806 -3.896,8.702 -8.702,8.702 h -8.703 c -4.806,0 -8.702,-3.896 -8.702,-8.702 z m -40.466,0 c 0,-4.806 3.897,-8.703 8.702,-8.703 h 8.702 c 4.807,0 8.703,3.896 8.703,8.703 v 9.863 c 0,4.806 -3.896,8.702 -8.703,8.702 h -8.702 c -4.805,0 -8.702,-3.896 -8.702,-8.702 z"
   id="path1-0"
   style="fill:#333333;fill-opacity:1" />
&#10;			<path
   d="m 419.875,335.77 -2.615,-14.83 c -0.353,-1.997 -2.256,-3.331 -4.255,-2.979 l -13.188,2.324 c -1.583,-3.715 -3.605,-7.195 -6.005,-10.38 l 8.614,-10.268 c 0.626,-0.744 0.931,-1.709 0.847,-2.68 -0.086,-0.971 -0.554,-1.867 -1.3,-2.494 l -11.534,-9.68 c -0.746,-0.626 -1.713,-0.93 -2.683,-0.845 -0.971,0.085 -1.867,0.552 -2.493,1.298 l -8.606,10.26 c -3.533,-1.8 -7.312,-3.188 -11.271,-4.104 V 278 c 0,-2.028 -1.645,-3.674 -3.673,-3.674 h -15.06 c -2.027,0 -3.673,1.646 -3.673,3.674 v 13.392 c -3.961,0.915 -7.736,2.304 -11.271,4.104 l -8.608,-10.259 c -1.304,-1.554 -3.62,-1.756 -5.175,-0.453 l -11.535,9.679 c -0.746,0.627 -1.213,1.523 -1.299,2.494 -0.084,0.971 0.22,1.937 0.846,2.683 l 8.615,10.266 c -2.396,3.184 -4.422,6.666 -6.005,10.38 l -13.188,-2.325 c -1.994,-0.351 -3.901,0.982 -4.255,2.979 l -2.614,14.83 c -0.169,0.959 0.05,1.945 0.607,2.744 0.561,0.799 1.41,1.342 2.37,1.511 l 13.198,2.326 c 0.215,4.089 0.927,8.045 2.073,11.812 l -11.6,6.695 c -0.844,0.485 -1.459,1.289 -1.712,2.229 -0.252,0.941 -0.119,1.943 0.367,2.787 l 7.529,13.041 c 0.485,0.844 1.289,1.459 2.229,1.711 0.313,0.084 0.632,0.125 0.951,0.125 0.639,0 1.272,-0.166 1.836,-0.492 l 11.609,-6.703 c 2.73,2.925 5.812,5.517 9.18,7.709 l -4.584,12.593 c -0.332,0.916 -0.289,1.926 0.123,2.809 0.412,0.883 1.157,1.566 2.072,1.898 l 14.148,5.149 c 0.406,0.148 0.832,0.224 1.257,0.224 0.53,0 1.063,-0.115 1.554,-0.345 0.883,-0.411 1.564,-1.157 1.897,-2.073 l 4.583,-12.593 c 1.965,0.238 3.965,0.361 5.994,0.361 2.029,0 4.029,-0.125 5.994,-0.361 l 4.584,12.593 c 0.332,0.916 1.016,1.662 1.897,2.073 0.49,0.229 1.021,0.345 1.554,0.345 0.424,0 0.85,-0.074 1.256,-0.224 l 14.15,-5.149 c 0.913,-0.332 1.659,-1.017 2.07,-1.898 0.412,-0.883 0.456,-1.893 0.123,-2.809 l -4.584,-12.591 c 3.365,-2.192 6.447,-4.786 9.18,-7.709 l 11.609,6.703 c 0.563,0.324 1.197,0.492 1.836,0.492 0.318,0 0.64,-0.043 0.951,-0.125 0.941,-0.252 1.743,-0.869 2.229,-1.711 l 7.529,-13.043 c 0.486,-0.842 0.619,-1.846 0.367,-2.787 -0.253,-0.938 -0.868,-1.742 -1.712,-2.229 l -11.598,-6.693 c 1.146,-3.768 1.856,-7.724 2.071,-11.812 l 13.198,-2.327 c 0.96,-0.169 1.812,-0.712 2.37,-1.511 0.579,-0.8 0.798,-1.786 0.629,-2.745 z m -65.691,23.566 c -11.155,0 -20.2,-9.045 -20.2,-20.201 0,-11.156 9.046,-20.2 20.2,-20.2 11.156,0 20.201,9.044 20.201,20.2 0,11.156 -9.045,20.201 -20.201,20.201 z"
   id="path2-0"
   style="fill:#333333;fill-opacity:1" />
&#10;			<g
   id="g5"
   style="fill:#333333;fill-opacity:1">&#10;				<path
   d="m 164.695,235.373 c 0,-4.752 -2.785,-9.117 -7.096,-11.119 L 118.144,205.922 157.6,187.588 c 4.31,-2.004 7.095,-6.368 7.095,-11.118 v -0.319 c 0,-4.21 -2.119,-8.075 -5.665,-10.334 -1.962,-1.253 -4.247,-1.916 -6.606,-1.916 -1.778,0 -3.563,0.391 -5.16,1.133 l -63.078,29.333 c -4.309,2.004 -7.092,6.368 -7.092,11.117 v 0.877 c 0,4.743 2.782,9.104 7.093,11.118 l 63.084,29.336 c 1.631,0.755 3.368,1.138 5.162,1.138 2.338,0 4.616,-0.664 6.597,-1.924 3.548,-2.268 5.666,-6.13 5.666,-10.335 z"
   id="path3-3"
   style="fill:#333333;fill-opacity:1" />
&#10;				<path
   d="m 226.932,134.012 c -2.301,-3.15 -6.002,-5.03 -9.901,-5.03 h -0.314 c -5.354,0 -10.048,3.425 -11.679,8.516 l -41.56,128.772 c -1.183,3.718 -0.517,7.813 1.781,10.962 2.301,3.148 6.002,5.029 9.901,5.029 h 0.315 c 5.352,0 10.043,-3.426 11.672,-8.516 l 41.555,-128.762 c 1.194,-3.715 0.532,-7.816 -1.77,-10.971 z"
   id="path4"
   style="fill:#333333;fill-opacity:1" />
&#10;				<path
   d="m 308.001,194.366 -63.079,-29.333 c -1.592,-0.74 -3.374,-1.131 -5.152,-1.131 -2.358,0 -4.644,0.661 -6.605,1.912 -3.552,2.263 -5.671,6.127 -5.671,10.337 v 0.319 c 0,4.746 2.783,9.111 7.097,11.123 l 39.454,18.33 -39.455,18.331 c -4.311,2.002 -7.096,6.367 -7.096,11.119 v 0.321 c 0,4.205 2.119,8.066 5.669,10.336 1.974,1.258 4.254,1.923 6.595,1.923 1.792,0 3.527,-0.383 5.169,-1.141 l 63.082,-29.336 c 4.307,-2.009 7.088,-6.371 7.088,-11.114 v -0.877 c -0.003,-4.75 -2.786,-9.114 -7.096,-11.119 z"
   id="path5"
   style="fill:#333333;fill-opacity:1" />
&#10;			</g>
&#10;		</g>
&#10;	</g>
&#10;</g>
  </g>
</svg>
